<svg id="Warstwa_1" data-name="Warstwa 1" xmlns="http://www.w3.org/2000/svg" viewBox="0 0 1448 270.59"><defs><style>.cls-1{fill:#1d1d1b;}.cls-2,.cls-3{fill:none;}.cls-3{stroke:#1d1d1b;stroke-miterlimit:10;stroke-width:4px;}.cls-15,.cls-4{font-size:39px;}.cls-11,.cls-15,.cls-4{font-family:Montserrat-Medium, Montserrat;font-weight:500;}.cls-4{letter-spacing:0.09em;}.cls-5{letter-spacing:0.08em;}.cls-15,.cls-6{letter-spacing:0.1em;}.cls-7{letter-spacing:0.09em;}.cls-8{letter-spacing:0.09em;}.cls-9{letter-spacing:0.1em;}.cls-10{letter-spacing:0.07em;}.cls-11{font-size:73px;letter-spacing:0.18em;}.cls-12{letter-spacing:0.17em;}.cls-13{letter-spacing:0.17em;}.cls-14{letter-spacing:0.18em;}.cls-16{letter-spacing:0.07em;}</style></defs><title>liondesktop</title><path class="cls-1" d="M945.2,195.15c2.54-.53,5.09-1,7.65-1.35s5.12-.72,7.7-1,5.15-.52,7.76-.61c1.3-.07,2.61-.1,3.94-.09a20.13,20.13,0,0,1,2,.1c.35,0,.67,0,1.06.12l1.16.25,2.35.5L977.11,195l-3.48,3.76c-1.19,1.22-2.39,2.44-3.61,3.64s-2.45,2.4-3.77,3.53c-.66.57-1.32,1.13-2.06,1.68a8.17,8.17,0,0,1-1.3.82l-.23.11-.35.1a2.11,2.11,0,0,1-.6,0,3.67,3.67,0,0,1-.91-.13,17.88,17.88,0,0,1-4.86-2.55,20.25,20.25,0,0,1-4-3.56,6.44,6.44,0,0,1-.8-1.22c-.1-.25-.22-.6-.24-.69a1.68,1.68,0,0,0-.19-.45,7.62,7.62,0,0,0-1.52-1.8A30.64,30.64,0,0,0,945.2,195.15Zm0,0a23.68,23.68,0,0,1,4.59,2.35,8.25,8.25,0,0,1,2,1.83,3.13,3.13,0,0,1,.4.67,4,4,0,0,0,.25.49,5.72,5.72,0,0,0,.7.83,21.27,21.27,0,0,0,3.93,2.83,15.94,15.94,0,0,0,4.27,1.88c.12,0,.34.07.34,0s.08,0,0,0,0,0,0,0l0,0a6.78,6.78,0,0,0,.82-.59c.6-.49,1.21-1.06,1.81-1.63,1.19-1.16,2.39-2.34,3.57-3.54s2.35-2.42,3.51-3.65L975,193l.62,2.38-.73-.16a7.26,7.26,0,0,0-.86-.1c-.58-.08-1.21-.1-1.83-.14-1.25-.07-2.52-.1-3.79-.09-2.55,0-5.12,0-7.69.08l-7.73.15C950.37,195.13,947.79,195.16,945.2,195.15Z" transform="translate(-231 -22.1)"/><path class="cls-1" d="M959.09,226.67a10.68,10.68,0,0,1,4.14,1.31,9.75,9.75,0,0,1,3,3.18c.82,1.19,1.67,2.36,2.59,3.48a25.08,25.08,0,0,0,2.86,3.19,12.2,12.2,0,0,0,8,2.33,11.5,11.5,0,0,0,7.42-3.5l-.14.28a68.24,68.24,0,0,1,7.64-24.33,74.41,74.41,0,0,1,7.17-10.63l1.95-2.49c.65-.81,1.13-1.7,1.69-2.55a8.74,8.74,0,0,0,.72-1.35l.67-1.38c.4-.94.72-1.93,1.08-2.88a46.71,46.71,0,0,0,1.94-12.25,90.55,90.55,0,0,0-.5-12.53,173,173,0,0,0-4.75-24.74c-2.13-8.15-4.7-16.19-7.61-24.1-.73-2-1.48-3.94-2.26-5.89l-.3-.72a2.32,2.32,0,0,0-.11-.27l-.16-.28a12.39,12.39,0,0,0-.8-1.19,16.32,16.32,0,0,0-1.95-2.22,26.32,26.32,0,0,0-10.31-6,42.34,42.34,0,0,0-12.09-1.88h-3.09c-1,0-2.07.15-3.1.22-2,.13-4.2.37-6.32.57-4.25.38-8.53.57-12.69.82-1,.07-2.08.15-3.08.29a25.42,25.42,0,0,0-2.94.53c-.48.1-.91.31-1.37.45l-.68.24a5.59,5.59,0,0,0-.65.32l-1.27.67-1.19.85c-3.14,2.36-5.73,5.73-8.26,9s-4.94,6.82-7.36,10.28a86.54,86.54,0,0,0-11.18,22.28,85.57,85.57,0,0,0-4.35,24.56l-.08,3.13.1,3.13,0,1.56c0,.52.1,1,.14,1.56l.29,3.11a56.7,56.7,0,0,0,2.88,12.06c.41.94.75,1.92,1.22,2.81s.93,1.78,1.53,2.65c1.15,1.74,2.35,3.47,3.61,5.15,2.49,3.39,5.16,6.68,7.73,10.07a116.24,116.24,0,0,1,7.27,10.52q1.65,2.75,3.11,5.59c.47,1,1,1.91,1.4,2.88l.66,1.46.33.73c0,.11.11.28.15.34s.07.14.12.19a1.6,1.6,0,0,0,1,.49,5.54,5.54,0,0,0,1.42.06,17.8,17.8,0,0,0,3-.47c1-.24,2-.51,3-.8a11,11,0,0,0,2.75-1.25,63.13,63.13,0,0,1,11.17-6.16c1-.41,2-.75,2.88-1.23a6.31,6.31,0,0,0,2.15-2.09,13.81,13.81,0,0,0,2-5.85c.3-2.09.57-4.2.72-6.3a43.29,43.29,0,0,0-.07-6.34,42.07,42.07,0,0,1,.27,6.35c-.07,2.12-.28,4.23-.51,6.34a14.1,14.1,0,0,1-1.91,6.12,7.2,7.2,0,0,1-2.31,2.35c-1,.55-2,.9-2.92,1.33a61.83,61.83,0,0,0-10.9,6.37,12.25,12.25,0,0,1-3,1.44c-1,.32-2,.62-3.08.89a21.17,21.17,0,0,1-3.23.59,7.3,7.3,0,0,1-1.74,0,2.88,2.88,0,0,1-1.8-.9,3.82,3.82,0,0,1-.31-.47l-.19-.38-.34-.71-.68-1.42c-.44-1-1-1.87-1.44-2.81q-1.47-2.77-3.14-5.45a114.67,114.67,0,0,0-7.32-10.27c-2.6-3.31-5.32-6.57-7.9-10-1.3-1.69-2.55-3.43-3.76-5.2-.61-.86-1.12-1.88-1.69-2.82s-.9-2-1.35-3a59,59,0,0,1-3.19-12.55l-.35-3.21c-.06-.53-.13-1.07-.17-1.6l-.07-1.61-.15-3.23.05-3.22A88.63,88.63,0,0,1,903.21,145a89.53,89.53,0,0,1,11.42-23c2.41-3.49,4.81-7,7.38-10.42,1.25-1.72,2.61-3.4,4-5.05.75-.8,1.45-1.63,2.24-2.41l1.23-1.13.62-.56.69-.51,1.4-1c.5-.28,1-.55,1.53-.82.26-.13.51-.28.78-.39l.81-.29c.55-.18,1.09-.42,1.64-.54a27.66,27.66,0,0,1,3.3-.61c1.1-.17,2.18-.25,3.25-.33,4.28-.3,8.47-.44,12.66-.79,2.1-.19,4.15-.41,6.34-.55,1.08-.07,2.15-.17,3.23-.21l3.26,0a44.85,44.85,0,0,1,12.91,2.08,29.15,29.15,0,0,1,11.37,6.75,19.32,19.32,0,0,1,2.22,2.56,13.63,13.63,0,0,1,1,1.46l.23.41a3.78,3.78,0,0,1,.2.46l.3.74q1.18,3,2.26,6c2.9,8,5.46,16.13,7.57,24.38a158.46,158.46,0,0,1,4.54,25.17,90.28,90.28,0,0,1,.32,12.85,48.72,48.72,0,0,1-2.21,12.74c-.4,1-.75,2.05-1.2,3.05l-.73,1.47a11.24,11.24,0,0,1-.8,1.44c-.61.9-1.17,1.87-1.86,2.7l-2,2.48a72.8,72.8,0,0,0-7.17,10.31,67.87,67.87,0,0,0-8,23.7l0,.17-.12.11a12.35,12.35,0,0,1-8.07,3.56,12.78,12.78,0,0,1-8.34-2.66,23,23,0,0,1-2.85-3.35c-.89-1.16-1.71-2.36-2.5-3.58a9.53,9.53,0,0,0-2.82-3.22A10.55,10.55,0,0,0,959.09,226.67Z" transform="translate(-231 -22.1)"/><path class="cls-1" d="M931.13,237.34a59.51,59.51,0,0,0,3.31,11.38c.72,1.81,1.58,3.6,2.43,5.39a29.43,29.43,0,0,0,2.87,5,14.72,14.72,0,0,0,9.1,5.66,62,62,0,0,0,11.6.67,56.43,56.43,0,0,0,11.57-.62,15.78,15.78,0,0,0,5.1-2,16.37,16.37,0,0,0,4.1-3.66,21,21,0,0,0,2.87-4.87,27.46,27.46,0,0,0,1-2.71,8.53,8.53,0,0,0,.38-1.35l.27-1.44c.67-3.89,1.09-7.85,1.64-11.81.12,4,.09,8-.18,12,0,.51-.09,1-.15,1.52a11.32,11.32,0,0,1-.3,1.56,29,29,0,0,1-.85,3,21.67,21.67,0,0,1-2.83,5.57,17.28,17.28,0,0,1-4.55,4.47,18.54,18.54,0,0,1-5.91,2.5c-4.14.93-8.23.83-12.2.85s-8,0-12.19-.9a16.87,16.87,0,0,1-10.4-7.09,28.22,28.22,0,0,1-2.75-5.53c-.72-1.87-1.44-3.74-2-5.69A45.3,45.3,0,0,1,931.13,237.34Z" transform="translate(-231 -22.1)"/><path class="cls-1" d="M951.31,231a12.29,12.29,0,0,1,3.56-1.9,10.46,10.46,0,0,1,4.09-.68,8.48,8.48,0,0,1,1.11.16,7.07,7.07,0,0,1,1.1.33c.65.27,1.14.52,1.7.78a22.06,22.06,0,0,1,3.44,1.91,10.54,10.54,0,0,1-4,.37,13.33,13.33,0,0,1-2-.35,9.8,9.8,0,0,0-1.55-.2c-1-.08-2.21,0-3.5,0A17.65,17.65,0,0,1,951.31,231Z" transform="translate(-231 -22.1)"/><path class="cls-1" d="M1027.07,87.27a20,20,0,0,1,5.64-7.75,21.54,21.54,0,0,1,8.81-4.33,19.64,19.64,0,0,1,10,.17,23.45,23.45,0,0,1,8.76,4.86,24.17,24.17,0,0,1,6,8,23,23,0,0,1,.91,2.39,16.9,16.9,0,0,1,.5,2.55,12.33,12.33,0,0,1,0,2.65l-.26,1.33a11.2,11.2,0,0,1-.44,1.27c-1.43,3.3-4.06,5.48-6.69,7.31a37.42,37.42,0,0,1-8.56,4.27,53.84,53.84,0,0,0,7.67-5.44c2.32-2,4.48-4.34,5.39-7a8.11,8.11,0,0,0,.25-4.07,13.89,13.89,0,0,0-.51-2.07,18.6,18.6,0,0,0-.87-2,22,22,0,0,0-5.44-6.93,21.32,21.32,0,0,0-7.6-4.41,18.38,18.38,0,0,0-8.73-.59,22.31,22.31,0,0,0-4.36,1.17,19,19,0,0,0-4,2A23.19,23.19,0,0,0,1027.07,87.27Z" transform="translate(-231 -22.1)"/><path class="cls-1" d="M895.05,91.76A27.68,27.68,0,0,0,885,80.48a25.47,25.47,0,0,0-4.43-2.29,21.5,21.5,0,0,0-18.87,1.16,27.67,27.67,0,0,0-4.09,2.76c-1.27,1-2.6,2.25-3.76,3.37a9.91,9.91,0,0,0-2.58,3.77,10.87,10.87,0,0,0-.53,4.57,23.25,23.25,0,0,0,3.34,9.31,52.11,52.11,0,0,0,6.14,8.31,38.53,38.53,0,0,1-7.37-7.5,23.08,23.08,0,0,1-4.43-9.83,12.08,12.08,0,0,1,.36-5.71,12.69,12.69,0,0,1,3-4.9,52.07,52.07,0,0,1,3.94-3.65,29.33,29.33,0,0,1,4.5-3.12,23.3,23.3,0,0,1,10.58-3,21.61,21.61,0,0,1,5.5.51,22.27,22.27,0,0,1,5.17,1.78A26.69,26.69,0,0,1,890,82.53,22.7,22.7,0,0,1,895.05,91.76Z" transform="translate(-231 -22.1)"/><path class="cls-1" d="M883.87,78.83a9.94,9.94,0,0,1,5.42-2.46,10.44,10.44,0,0,1,5.91,1l-.23.23a20.48,20.48,0,0,0-4.58-5.52,18.7,18.7,0,0,0-6.25-3.45,19.4,19.4,0,0,0-7.06-.87,22.12,22.12,0,0,0-6.93,1.57l-.45-.88a50.51,50.51,0,0,1,8.2-4.16,35.12,35.12,0,0,1,9-2.33,27.39,27.39,0,0,1,9.29.47,45.74,45.74,0,0,1,8.72,3.06c1.4.61,2.77,1.26,4.14,1.81a14.16,14.16,0,0,0,2,.67,3,3,0,0,0,1.69,0,1.55,1.55,0,0,0,.81-1.14,5.61,5.61,0,0,0,0-1.92,13.62,13.62,0,0,0-1.33-4,13.07,13.07,0,0,0-6.15-5.61,21.42,21.42,0,0,0-8.41-1.85L892,53.3l5.36-1.92a36.26,36.26,0,0,1,9.82-2,32.41,32.41,0,0,1,10,.93,28.37,28.37,0,0,1,9.17,4.32,29.38,29.38,0,0,1,7,7.29l-1.73-.38a14.43,14.43,0,0,0,3.89-3.49A19.35,19.35,0,0,0,937,55.79a10.19,10.19,0,0,0,1-2.34,6.07,6.07,0,0,0-.57-4.57,9.71,9.71,0,0,0-3.53-3.47l-8.16-4.79L934.8,43c.57.14,1.14.28,1.7.44s1.13.36,1.68.62a14.93,14.93,0,0,1,3.13,1.82,12.84,12.84,0,0,1,2.51,2.69,11.32,11.32,0,0,1,.93,1.62,8.91,8.91,0,0,1,.63,1.89l-2.45-.56a6.74,6.74,0,0,0,.8-5.37,20.24,20.24,0,0,0-2.32-5.79,44.41,44.41,0,0,0-3.62-5.38A58.08,58.08,0,0,0,933.52,30l-7.7-7.9,9.38,5.66c1.4.84,2.81,1.65,4.2,2.53l2,1.45a19.09,19.09,0,0,1,1.94,1.52,34.13,34.13,0,0,1,3.57,3.44A35.46,35.46,0,0,1,950,40.58a30.93,30.93,0,0,1,4.12,9.1,20.3,20.3,0,0,1,.53,2.46c.18.82.22,1.66.32,2.5a23.15,23.15,0,0,1-.17,5.16l-2.56-1.32A91.65,91.65,0,0,1,960.52,51a79.64,79.64,0,0,1,9.17-6.42A44.4,44.4,0,0,1,980,39.93a21.65,21.65,0,0,1,11.61-.34l7.73,2.13-8,.63a22.22,22.22,0,0,0-5.05,1.07,17.85,17.85,0,0,0-4.57,2.31,11.83,11.83,0,0,0-3.34,3.64,12.78,12.78,0,0,0-1.6,4.71l-2-1.37a64.52,64.52,0,0,1,25.37-7.49,66.72,66.72,0,0,1,26.23,3.22l7.49,2.44L1026,50.8a33.51,33.51,0,0,0-12.73,2.06,20.79,20.79,0,0,0-2.83,1.42,18.61,18.61,0,0,0-2.58,1.84,5.51,5.51,0,0,0-1.65,2.24,3.21,3.21,0,0,0,.15,2.48l-1.7-.27a18.33,18.33,0,0,1,3.43-2.83,17.61,17.61,0,0,1,2-1c.34-.15.66-.34,1-.46l1.06-.34a21.41,21.41,0,0,1,8.7-.7,34.36,34.36,0,0,1,8.34,2.1,45.57,45.57,0,0,1,7.68,3.77l4.29,2.65-4.91-1.15c-2.58-.61-5.22-1.1-7.85-1.46a43,43,0,0,0-7.91-.44,11.55,11.55,0,0,0-3.71.74,2.55,2.55,0,0,0-1.85,2.46,7.84,7.84,0,0,0,1.24,3.48,27.18,27.18,0,0,0,2.31,3.19l-.09-.09,7.53,5.38-.51,0a29,29,0,0,1,9.87-5.25,28.69,28.69,0,0,1,11.08-1.12l.94.09-.9.24a14.13,14.13,0,0,0-5.28,2.5,6.09,6.09,0,0,0-1.82,2.27,3.71,3.71,0,0,0-.07,2.87,3.78,3.78,0,0,1,0-2.9A6.22,6.22,0,0,1,1041,72.2a14.24,14.24,0,0,1,5.3-2.69l0,.33a29,29,0,0,0-10.87,1.36,28.18,28.18,0,0,0-9.52,5.32l-.24.2-.27-.18-7.65-5.22,0,0,0-.05a25.14,25.14,0,0,1-2.49-3.29,8.76,8.76,0,0,1-1.49-4,3.48,3.48,0,0,1,.69-2.28,4.53,4.53,0,0,1,1.84-1.39,12.6,12.6,0,0,1,4.14-.94,42.27,42.27,0,0,1,8.2.3c2.7.33,5.37.79,8,1.38l-.61,1.5a43.56,43.56,0,0,0-7.43-3.53,32.78,32.78,0,0,0-7.92-1.9,19.47,19.47,0,0,0-7.91.74l-.94.3c-.31.11-.59.29-.89.42a14.4,14.4,0,0,0-1.73.93,15.48,15.48,0,0,0-3,2.54l-1,1.13-.66-1.4a5.44,5.44,0,0,1-.54-2,5.19,5.19,0,0,1,.27-2.07,7.73,7.73,0,0,1,2.2-3.16,21.13,21.13,0,0,1,2.86-2.1,22.37,22.37,0,0,1,3.15-1.63,35.74,35.74,0,0,1,13.59-2.4l-.38,2.36a68.39,68.39,0,0,0-12.5-2.68,61.68,61.68,0,0,0-37.06,7l-2.48,1.34.49-2.71A15.46,15.46,0,0,1,976,48a14.55,14.55,0,0,1,4.08-4.5,20.44,20.44,0,0,1,5.3-2.71,24,24,0,0,1,5.8-1.24l-.31,2.76a18.8,18.8,0,0,0-10.07.39A41.52,41.52,0,0,0,971.17,47a76,76,0,0,0-8.79,6.22,93.24,93.24,0,0,0-8,7.27l-3.28,3.38.72-4.7a15.18,15.18,0,0,0,.19-2.12c0-.74,0-1.49,0-2.24s-.12-1.49-.27-2.23a20.49,20.49,0,0,0-.47-2.2,28.24,28.24,0,0,0-3.68-8.22,34.52,34.52,0,0,0-2.83-3.56A20.52,20.52,0,0,0,943.17,37l-1.71-1.54a16.52,16.52,0,0,0-1.8-1.42l-1.85-1.37c-1.31-.83-2.65-1.61-4-2.41L935.52,28A59.41,59.41,0,0,1,940,33.21,47.68,47.68,0,0,1,943.83,39a23.09,23.09,0,0,1,2.6,6.62,11.89,11.89,0,0,1,.16,3.78,8.36,8.36,0,0,1-1.44,3.7l-1.82,2.53-.63-3.1a7,7,0,0,0-.42-1.21,7.93,7.93,0,0,0-.7-1.23A9.39,9.39,0,0,0,939.64,48a12.21,12.21,0,0,0-2.52-1.49c-.45-.21-.94-.34-1.4-.52l-1.47-.39.93-2.45a12.15,12.15,0,0,1,4.52,4.51,8.76,8.76,0,0,1,.79,6.52,12.79,12.79,0,0,1-1.25,2.92,20.63,20.63,0,0,1-1.65,2.57,17,17,0,0,1-4.6,4.11l-1,.64-.68-1a27.36,27.36,0,0,0-6.4-6.7,25.66,25.66,0,0,0-8.32-4.06,30.12,30.12,0,0,0-9.28-1A34.19,34.19,0,0,0,898,53.39l-.33-2.07a23.28,23.28,0,0,1,9.22,2.17,14.9,14.9,0,0,1,7,6.55,15.37,15.37,0,0,1,1.46,4.62,6.94,6.94,0,0,1-.06,2.6,3.32,3.32,0,0,1-1.85,2.35,4.62,4.62,0,0,1-2.79.09,15.26,15.26,0,0,1-2.28-.78c-1.44-.6-2.81-1.26-4.18-1.89A44.48,44.48,0,0,0,895.79,64a26.83,26.83,0,0,0-8.8-.6,33.92,33.92,0,0,0-8.67,2.06,50.32,50.32,0,0,0-8.1,3.91l-.45-.88A23,23,0,0,1,877,67,20.22,20.22,0,0,1,884.36,68a19.22,19.22,0,0,1,6.37,3.7,20.13,20.13,0,0,1,4.54,5.76l.27.49-.49-.26a10.3,10.3,0,0,0-5.74-1.17A9.93,9.93,0,0,0,883.87,78.83Z" transform="translate(-231 -22.1)"/><path class="cls-1" d="M855.81,107a14.35,14.35,0,0,0-6-2.18,7.85,7.85,0,0,0-3.09.27l-.74.2a4.45,4.45,0,0,0-.71.3,6.84,6.84,0,0,0-1.36.73,16.8,16.8,0,0,0-4.45,4.33,33.22,33.22,0,0,0-3.2,5.43c-.45,1-.87,1.92-1.25,2.91-.19.49-.36,1-.53,1.47l-.09.3a.86.86,0,0,0-.15-.71.8.8,0,0,0-.28-.25l-.07,0-.13-.07a1,1,0,0,0-.7-.08,1,1,0,0,0-.68.59l0-.05,0-.09c.1-.27.2-.54.31-.8a14.83,14.83,0,0,1,4-5.68,11.08,11.08,0,0,1,3.14-1.84,10.38,10.38,0,0,1,3.6-.63,17.06,17.06,0,0,1,6.8,1.56l2,.88L850.62,115a26.39,26.39,0,0,0-7.78,10.83,30.12,30.12,0,0,0-1.66,6.55,35,35,0,0,0-.24,6.79l-3,0a18.42,18.42,0,0,1,1.47-6.43,14.94,14.94,0,0,1,3.92-5.43,11.41,11.41,0,0,1,6.28-2.72,12.75,12.75,0,0,1,6.62,1.27l2.61,1.22-2.62,1.15a18.11,18.11,0,0,0-9.2,8.62,25.76,25.76,0,0,0-2.48,12.83l-1.41-.12a18.4,18.4,0,0,1,4.9-8,17.28,17.28,0,0,1,3.8-2.75,18.21,18.21,0,0,1,4.36-1.57,17.8,17.8,0,0,0-7.6,4.86,17.37,17.37,0,0,0-4.07,7.86l-.92,4.09-.5-4.21a28.6,28.6,0,0,1,.07-7,23.74,23.74,0,0,1,1.92-6.85,20.83,20.83,0,0,1,4.1-5.94,20.42,20.42,0,0,1,6-4.13v2.37a10.15,10.15,0,0,0-5.24-.9,8.63,8.63,0,0,0-4.7,2.16,12.15,12.15,0,0,0-3.11,4.41,15.87,15.87,0,0,0-1.19,5.42l-3,0a33.94,33.94,0,0,1,.25-7.4,32.23,32.23,0,0,1,1.88-7.2,28.75,28.75,0,0,1,3.6-6.54,28.29,28.29,0,0,1,5.19-5.35l.3,2.3a14.34,14.34,0,0,0-5.69-1.47,8.15,8.15,0,0,0-5.23,1.74,12.5,12.5,0,0,0-3.55,4.68c-.11.23-.2.46-.3.7l0,.1,0,0a1.11,1.11,0,0,1-.72.68,1,1,0,0,1-.72,0c-.08,0-.12,0-.13-.07l-.06-.05a1.45,1.45,0,0,1-.26-.35,1.26,1.26,0,0,1-.09-.9l.16-.47c.2-.53.41-1,.64-1.55.45-1,.94-2,1.46-3a34.85,34.85,0,0,1,3.66-5.53,17.9,17.9,0,0,1,5.1-4.3,8.15,8.15,0,0,1,1.54-.69,7.58,7.58,0,0,1,.8-.28l.83-.15a8.35,8.35,0,0,1,3.34,0A13.72,13.72,0,0,1,855.81,107Z" transform="translate(-231 -22.1)"/><path class="cls-1" d="M892.84,258a39.62,39.62,0,0,0,3.36,11.66,37.45,37.45,0,0,0,6.72,9.85,39.33,39.33,0,0,0,4.38,4,18.77,18.77,0,0,0,2.34,1.57l.1,0h0l-.11,0h-.1a1.63,1.63,0,0,0-.39,0,1.4,1.4,0,0,0-.74.36,1.33,1.33,0,0,0-.43.74,1.51,1.51,0,0,0,0,.72,1.59,1.59,0,0,0,.12.27l.06.09,0,.05-.1-.09-.56-.55c-.39-.39-.77-.8-1.13-1.24a14.82,14.82,0,0,1-3-12.8l.67-2.93L906,272c1.46,1.76,3,3.5,4.61,5.19s3.19,3.38,4.86,5a63.39,63.39,0,0,0,5.21,4.52,19.63,19.63,0,0,0,5.79,3.28l-.67,1.55a20.12,20.12,0,0,1-5-5.28,18.8,18.8,0,0,1-2.74-6.62,21,21,0,0,0,3.54,6,20.74,20.74,0,0,0,5.19,4.44L931,292.7l-4.93-1.06a19.37,19.37,0,0,1-6.68-3.13,51.1,51.1,0,0,1-5.69-4.41q-2.67-2.37-5.18-4.92c-1.65-1.72-3.24-3.45-4.8-5.29l2.58-.62a13.34,13.34,0,0,0,0,5.45,11.76,11.76,0,0,0,2.38,4.89c.29.37.6.71.93,1.06l.52.54.17.18c0,.05.08.08.17.2l.08.13a1.77,1.77,0,0,1,.15.31,1.62,1.62,0,0,1,0,.74,1.41,1.41,0,0,1-.44.76,1.44,1.44,0,0,1-1.21.35H909l-.1,0-.2-.07-.16-.07-.25-.13a21.66,21.66,0,0,1-2.71-1.94,34.79,34.79,0,0,1-4.51-4.49,39.57,39.57,0,0,1-3.67-5.16,37.09,37.09,0,0,1-2.66-5.72A33.06,33.06,0,0,1,892.84,258Z" transform="translate(-231 -22.1)"/><path class="cls-1" d="M1032,242.94a20,20,0,0,1,1.19,10.54,20.23,20.23,0,0,1-4.53,9.83l-3,3.5,1.48-4.4a8.29,8.29,0,0,0,.43-3.05,7.79,7.79,0,0,0-5-7l1.68-1.24a34.09,34.09,0,0,1,.08,7.69,34.51,34.51,0,0,1-9.66,20.65l-5.47,5.65,3-7.27a13.59,13.59,0,0,0,.76-8.11,13.38,13.38,0,0,0-1.49-3.85,15.11,15.11,0,0,0-2.55-3.29l2.35-1.14a31.69,31.69,0,0,1-.89,9.81,30.43,30.43,0,0,1-1.64,4.64,28.66,28.66,0,0,1-2.42,4.29,27,27,0,0,1-6.87,6.9,28.39,28.39,0,0,1-8.73,4.07l-2.55.7,2.11-1.53a9.89,9.89,0,0,0,4-7.94,9.91,9.91,0,0,1-.62,4.71,10.4,10.4,0,0,1-2.79,4l-.45-.82a28.57,28.57,0,0,0,8.05-4.47,26.92,26.92,0,0,0,8.09-10.8,31.19,31.19,0,0,0,1.32-4.32,28.53,28.53,0,0,0,.59-9l-.35-3.61,2.7,2.47a16.4,16.4,0,0,1,4.13,18.43l-2.45-1.62a32.55,32.55,0,0,0,7.47-11.95,32.93,32.93,0,0,0,1.83-14l-.17-2.08,1.85.83a10.29,10.29,0,0,1,3.18,2.22,9.72,9.72,0,0,1,2.11,3.22,9.57,9.57,0,0,1,.69,3.76,10.44,10.44,0,0,1-.75,3.7l-1.48-.9a19.69,19.69,0,0,0,4.83-8.87A20.79,20.79,0,0,0,1032,242.94Z" transform="translate(-231 -22.1)"/><path class="cls-2" d="M1043,181.76" transform="translate(-231 -22.1)"/><path class="cls-1" d="M1015.86,94.66a25.63,25.63,0,0,1,4.24-4.41,24.94,24.94,0,0,1,5.27-3.32,18.89,18.89,0,0,1,6.14-1.66,17.46,17.46,0,0,1,6.46.65l4,1-4,1.53c-1,.4-2.15.87-3.18,1.37a30.13,30.13,0,0,0-3,1.59,13.86,13.86,0,0,0-2.59,1.93,4.86,4.86,0,0,0-.82,1.05,1.35,1.35,0,0,0-.2.79l-2.24-1a15.2,15.2,0,0,1,2.54-1.14,19.06,19.06,0,0,1,2.59-.71,15.88,15.88,0,0,1,5.37-.09,14.9,14.9,0,0,1,5.07,1.66,18.36,18.36,0,0,1,2.25,1.39c.7.52,1.35,1.11,2,1.67l2.16,1.86-2.81-.13c-1.08,0-2.21,0-3.31,0s-2.22.09-3.32.21a17.59,17.59,0,0,0-3.23.64,5.44,5.44,0,0,0-1.46.69,2,2,0,0,0-.88,1.33,2.2,2.2,0,0,1,.65-1.58,5.45,5.45,0,0,1,1.44-1,14.88,14.88,0,0,1,3.27-1.18,30.31,30.31,0,0,1,3.39-.67c1.15-.16,2.27-.28,3.45-.35l-.65,1.72c-.66-.43-1.26-.93-1.93-1.33a13.73,13.73,0,0,0-2-1.06,14.3,14.3,0,0,0-4.36-1.16,14.05,14.05,0,0,0-4.48.27,14.59,14.59,0,0,0-2.17.63,11.9,11.9,0,0,0-2,.9l-1.88,1.11-.37-2.12a4.29,4.29,0,0,1,.47-2.67,7.26,7.26,0,0,1,1.38-1.78,16.75,16.75,0,0,1,3.19-2.33,36.22,36.22,0,0,1,3.35-1.69c1.14-.48,2.27-.91,3.48-1.31l0,2.56-1.34-.37-.67-.19-.69-.1c-.46,0-.92-.14-1.38-.19l-1.41,0a19.42,19.42,0,0,0-5.6,1,29,29,0,0,0-5.32,2.51A34.65,34.65,0,0,0,1015.86,94.66Z" transform="translate(-231 -22.1)"/><path class="cls-1" d="M900.06,106.76a26.19,26.19,0,0,0-.28-5.32,17.14,17.14,0,0,0-1.5-5,9.19,9.19,0,0,0-3.21-3.7,9.47,9.47,0,0,0-4.61-1.37l1-1.48a27.62,27.62,0,0,1,1.15,2.78,21.15,21.15,0,0,1,.81,2.91,11.72,11.72,0,0,1,.26,3.17,5.72,5.72,0,0,1-1.3,3.4l-1.21,1.38-.94-1.69a8.89,8.89,0,0,0-.64-.87,10.05,10.05,0,0,0-.83-.9,17,17,0,0,0-1.93-1.63A24.49,24.49,0,0,0,882.38,96a34.7,34.7,0,0,0-4.93-1.74l-2.57-.61-2.61-.5,1-2.72c1.89,1.23,3.7,2.5,5.5,3.84S882.33,97,884,98.5a32.21,32.21,0,0,1,4.66,5.06,9.11,9.11,0,0,1,1.58,3.46,5.16,5.16,0,0,1,.06,1.12,3.65,3.65,0,0,1-.32,1.16,3.33,3.33,0,0,1-.65,1,6.86,6.86,0,0,1-.85.7l-1,.78-.59-1.19a19.3,19.3,0,0,0-1.44-2.4,14.26,14.26,0,0,0-1.8-2.14,8.48,8.48,0,0,0-2.19-1.57A5.5,5.5,0,0,0,879,104l.46-1a25.27,25.27,0,0,1,2,5.26,11.1,11.1,0,0,1,.35,2.81,3.33,3.33,0,0,1-1,2.55,3.16,3.16,0,0,0,.64-2.54,12.46,12.46,0,0,0-.65-2.61,27.64,27.64,0,0,0-2.45-4.82l-.51-.8,1-.16a6.53,6.53,0,0,1,3.31.33,9.65,9.65,0,0,1,2.78,1.68,15.15,15.15,0,0,1,2.21,2.25,19.5,19.5,0,0,1,1.79,2.62l-1.57-.41a1.77,1.77,0,0,0,.62-.77A1.22,1.22,0,0,0,888,108a3.32,3.32,0,0,0-.06-.52,7.19,7.19,0,0,0-1.32-2.42,29.73,29.73,0,0,0-4.43-4.48c-1.63-1.39-3.36-2.7-5.11-4s-3.56-2.52-5.36-3.67l-6.39-4,7.41,1.33,2.77.49,2.74.69a37.14,37.14,0,0,1,5.34,1.95,24.29,24.29,0,0,1,5,2.93,19.29,19.29,0,0,1,2.19,2c.34.35.67.74,1,1.13a9.43,9.43,0,0,1,.9,1.38l-2.15-.31a3.17,3.17,0,0,0,.71-1.85A9.89,9.89,0,0,0,891.1,96a23.21,23.21,0,0,0-.59-2.64,26,26,0,0,0-.91-2.57l-.7-1.7,1.74.22A11,11,0,0,1,896,91.4a9.76,9.76,0,0,1,2,2.07A11.69,11.69,0,0,1,899.42,96a16.64,16.64,0,0,1,1.05,5.4A23,23,0,0,1,900.06,106.76Z" transform="translate(-231 -22.1)"/><path class="cls-1" d="M1054.11,108.82A37.73,37.73,0,0,1,1067,117.5a39.56,39.56,0,0,1,4.91,6.18,41.24,41.24,0,0,1,3.62,7.06l2.15,5.42-4.23-4.08a59.93,59.93,0,0,0-6.74-5.6,63.46,63.46,0,0,0-7.44-4.61l1.88-2.17c1.91,2.64,3.68,5.31,5.35,8.08s3.28,5.56,4.68,8.49a46,46,0,0,1,3.44,9.23,14.32,14.32,0,0,1,.29,5.21,8.62,8.62,0,0,1-.39,1.38,5.07,5.07,0,0,1-.74,1.29,5.25,5.25,0,0,1-2.39,1.71l-1.23.5-.11-1.31A21.74,21.74,0,0,0,1067,145a22.68,22.68,0,0,0-7-7.18,20.6,20.6,0,0,1,4.38,2.74,20.93,20.93,0,0,1,3.62,3.78,21.43,21.43,0,0,1,2.61,4.59A22.2,22.2,0,0,1,1072,154l-1.34-.81a3.35,3.35,0,0,0,2-2.86,12.06,12.06,0,0,0-.5-4.27,44.46,44.46,0,0,0-3.52-8.57c-1.44-2.78-3-5.53-4.68-8.2s-3.42-5.34-5.21-7.9l-3.62-5.14,5.5,3a58.89,58.89,0,0,1,7.73,4.94,61.77,61.77,0,0,1,6.86,6.07l-2.09,1.34a41,41,0,0,0-7.35-13,41.36,41.36,0,0,0-5.38-5.37A44.81,44.81,0,0,0,1054.11,108.82Z" transform="translate(-231 -22.1)"/><path class="cls-1" d="M960.12,231.29h.53a1.88,1.88,0,0,0,1-.22,2.3,2.3,0,0,0,1.32-1.32,1.88,1.88,0,0,0,.22-1l-.09-.67a2.52,2.52,0,0,0-.65-1.1l-.5-.39a2.43,2.43,0,0,0-1.26-.34h-.53a1.8,1.8,0,0,0-1,.21,1.82,1.82,0,0,0-.8.52,1.85,1.85,0,0,0-.52.8,1.89,1.89,0,0,0-.21,1l.09.66a2.41,2.41,0,0,0,.64,1.1l.5.39a2.58,2.58,0,0,0,1.27.35Z" transform="translate(-231 -22.1)"/><path class="cls-1" d="M957.66,227.8l-.4.26,1.71,1.71.06-.1-.19.25.11-.12-.25.2a.69.69,0,0,1,.17-.1l-.3.12.07,0-.66-2.41-2.8,1.17a1,1,0,0,0-.43.23,1,1,0,0,0-.32.35,1.29,1.29,0,0,0-.12,1,1.23,1.23,0,0,0,.57.75,1.25,1.25,0,0,0,1,.13l2.8-1.18a.93.93,0,0,0,.43-.22,1,1,0,0,0,.32-.35,1.32,1.32,0,0,0,.13-1,1.26,1.26,0,0,0-.58-.74,1.24,1.24,0,0,0-1-.13,1.93,1.93,0,0,0-1.17.92,1.25,1.25,0,0,0,1.71,1.71l.4-.26a1.33,1.33,0,0,0,.58-.74,1.32,1.32,0,0,0-.13-1,1.27,1.27,0,0,0-.75-.57,1.28,1.28,0,0,0-1,.12Z" transform="translate(-231 -22.1)"/><path class="cls-1" d="M958.64,229.83a8.87,8.87,0,0,0,1.61-1.51l-1.22.32a11.88,11.88,0,0,1,1.57.35l.73.25.18.07c-.27-.06-.23-.1-.11-.05s0,0-.09-.08l-.13-.17c-.08-.23-.1-.27-.07-.14l0-.33v.06l0-.33c0,.16.06-.08.08-.11-.09.16.08-.09.08-.09s-.21.19-.23.2a2,2,0,0,0-.5.63,1.31,1.31,0,0,0-.13,1,1.25,1.25,0,0,0,2.28.29.39.39,0,0,0,.06-.11c0,.18-.15.19,0,.08l.2-.17a2.05,2.05,0,0,0,.6-.93,1.7,1.7,0,0,0-.93-2,10.36,10.36,0,0,0-2.88-.84,1.3,1.3,0,0,0-1.22.32,6.57,6.57,0,0,1-.61.68l-.33.31-.15.12c-.24.19.19-.14,0,0a1.44,1.44,0,0,0-.58.75,1.26,1.26,0,0,0,.88,1.54,1.2,1.2,0,0,0,1-.13Z" transform="translate(-231 -22.1)"/><path class="cls-1" d="M961.51,229.44c.2.13.39.27.58.41l-.26-.2a9,9,0,0,1,1.63,1.63l-.2-.26,0,0,1.41-1.83c-.77-.24-1.53-.5-2.27-.79a1.25,1.25,0,0,0-1.54.88,1.29,1.29,0,0,0,.12,1l.2.25a1.23,1.23,0,0,0,.55.32c.75.29,1.51.55,2.27.79l.34,0,.33,0a1.28,1.28,0,0,0,.65-.45,1.18,1.18,0,0,0,.24-.59,1.12,1.12,0,0,0-.15-.8,10.58,10.58,0,0,0-1.21-1.38,11.21,11.21,0,0,0-1.45-1.12,1.27,1.27,0,0,0-1-.13,1.25,1.25,0,0,0-.74.57,1.27,1.27,0,0,0-.13,1,1.32,1.32,0,0,0,.57.74Z" transform="translate(-231 -22.1)"/><path class="cls-1" d="M965.76,230a7.47,7.47,0,0,0-3-2.74,1.37,1.37,0,0,0-1-.13,1.25,1.25,0,0,0-.74.57,1.27,1.27,0,0,0-.13,1,1.23,1.23,0,0,0,.58.74,7.42,7.42,0,0,1,1.14.7l-.26-.19a6.32,6.32,0,0,1,1.16,1.15l-.2-.25c.11.14.22.29.32.44a1.33,1.33,0,0,0,.74.58,1.32,1.32,0,0,0,1-.13,1.27,1.27,0,0,0,.57-.75,1.24,1.24,0,0,0-.13-1Z" transform="translate(-231 -22.1)"/><path class="cls-1" d="M963.37,227.67l-.21-.25a1.2,1.2,0,0,0-1.37-.26.87.87,0,0,0-.4.26l-.2.25a1.24,1.24,0,0,0-.17.63l.05.33a1.18,1.18,0,0,0,.32.55l.21.26a1,1,0,0,0,.4.26,1,1,0,0,0,.49.11,1,1,0,0,0,.48-.11,1,1,0,0,0,.4-.26l.2-.25a1.29,1.29,0,0,0,.17-.63l0-.34a1.33,1.33,0,0,0-.32-.55Z" transform="translate(-231 -22.1)"/><path class="cls-1" d="M962.53,229.72a1.25,1.25,0,0,0,0-2.5,1.25,1.25,0,0,0,0,2.5Z" transform="translate(-231 -22.1)"/><path class="cls-1" d="M965,231.63l.43.14a.42.42,0,0,0,.25,0,.48.48,0,0,0,.23-.07l.12-.1a.53.53,0,0,0,.16-.28.85.85,0,0,0,0-.23.83.83,0,0,0,0-.22s0,0,0-.07,0-.12-.08-.17v0a1.15,1.15,0,0,0-.14-.17l0-.05-.18-.14-.21-.09a.53.53,0,0,0-.25,0,.49.49,0,0,0-.23.08.46.46,0,0,0-.18.16.53.53,0,0,0-.11.21l0,.17a.68.68,0,0,0,.08.31l.1.13a.61.61,0,0,0,.28.16h0l-.15-.07.07,0-.12-.1.06.07-.09-.13a.41.41,0,0,1,0,.09l-.06-.15a.36.36,0,0,1,0,.1l0-.17v.09l0-.17v0l.77-.44-.42-.13a.43.43,0,0,0-.25,0,.51.51,0,0,0-.24.07.44.44,0,0,0-.17.16.43.43,0,0,0-.11.21l0,.17a.73.73,0,0,0,.09.32l.1.12a.63.63,0,0,0,.27.16Z" transform="translate(-231 -22.1)"/><path class="cls-1" d="M965.73,231.91a.63.63,0,0,0,0-1.25.63.63,0,0,0,0,1.25Z" transform="translate(-231 -22.1)"/><path class="cls-1" d="M980.1,163.29a11.46,11.46,0,0,1-1.52-7.92,8,8,0,0,1,2.08-4,9.24,9.24,0,0,1,3.83-2.3,26.84,26.84,0,0,1,8-1,22.47,22.47,0,0,1,7.81,1.25c-2.62.34-5.13.63-7.6,1.1a63.94,63.94,0,0,0-7.24,1.44,6.76,6.76,0,0,0-4.59,4.09A17.39,17.39,0,0,0,980.1,163.29Z" transform="translate(-231 -22.1)"/><path class="cls-1" d="M980,154.81a7.11,7.11,0,0,0,1.75,2.17,2.85,2.85,0,0,0,2,.58,6.36,6.36,0,0,0,1.07-.19c.37-.14.76-.24,1.14-.41s.78-.34,1.17-.55.78-.44,1.19-.64l-.19.14a3.87,3.87,0,0,0,.5-.5c.18-.21.35-.43.52-.66a10.19,10.19,0,0,0,.87-1.52,12.69,12.69,0,0,0,.63-1.77c.1-.31.14-.64.23-1s.12-.68.21-1a6.54,6.54,0,0,1,.81,2,7.11,7.11,0,0,1,.15,2.26,7.92,7.92,0,0,1-.59,2.27,7.21,7.21,0,0,1-.57,1.06,5.54,5.54,0,0,1-.83,1l-.06.06-.13.08c-.44.28-.9.55-1.36.82a15.37,15.37,0,0,1-1.49.67,11.32,11.32,0,0,1-1.67.41,5.76,5.76,0,0,1-1.85,0,4.22,4.22,0,0,1-3-2.1A4.67,4.67,0,0,1,980,154.81Z" transform="translate(-231 -22.1)"/><path class="cls-1" d="M913.29,155.15a61.28,61.28,0,0,1,7.64-1.07,32.23,32.23,0,0,1,7.85,0,18,18,0,0,1,4,1,9.88,9.88,0,0,1,1.94,1,8,8,0,0,1,3.4,5.42,6.67,6.67,0,0,1-.69,4,7.85,7.85,0,0,0-2.74-6.23,6.4,6.4,0,0,0-1.31-.88,10.72,10.72,0,0,0-1.54-.59,23.68,23.68,0,0,0-3.47-.72c-2.37-.38-4.83-.42-7.41-.64A45.83,45.83,0,0,1,913.29,155.15Z" transform="translate(-231 -22.1)"/><path class="cls-1" d="M928.09,155.65a4.92,4.92,0,0,1,1.27,2.77,5.34,5.34,0,0,1-.66,3.26,6.19,6.19,0,0,1-2.49,2.38,7.45,7.45,0,0,1-1.61.62,6.65,6.65,0,0,1-1.78.17,6.86,6.86,0,0,1-3.34-1,5.54,5.54,0,0,1-2.25-2.75,5.08,5.08,0,0,1,1.56-5.85,5.61,5.61,0,0,0,.56,4.82,4.18,4.18,0,0,0,3.57,1.74,4.57,4.57,0,0,0,1,0,5.72,5.72,0,0,0,1-.31,4.82,4.82,0,0,0,1.78-1.16A5.69,5.69,0,0,0,928.09,155.65Z" transform="translate(-231 -22.1)"/><path class="cls-1" d="M873.65,141.6a50.24,50.24,0,0,0-13.26,15.1,47,47,0,0,0-2.26,4.48l-.89,2.34c-.14.4-.31.78-.43,1.18l-.34,1.2a44.3,44.3,0,0,0-1.69,9.81l-1.57-.46a37.67,37.67,0,0,1,2.14-3.37,27.7,27.7,0,0,1,2.55-3.11,12.25,12.25,0,0,1,3.33-2.56,5.77,5.77,0,0,1,2.24-.63,4.49,4.49,0,0,1,2.41.53l1.07.58-.76,1A91,91,0,0,0,861,175.2a76.74,76.74,0,0,0-4.36,8,48.48,48.48,0,0,0-3.18,8.42,26.34,26.34,0,0,0-1,8.68l-2.68-.36c.77-2,1.6-3.95,2.52-5.88a50,50,0,0,1,3.12-5.62,20,20,0,0,1,4.4-5.1,6.55,6.55,0,0,1,3.68-1.46,5.35,5.35,0,0,1,1.12.09,7.61,7.61,0,0,1,1,.35c.31.17.63.34.91.53l.77.64.88.72-.64,1.1a81.32,81.32,0,0,0-3.94,7.8,70,70,0,0,0-3,8.19,36.82,36.82,0,0,0-1.52,8.43,16.07,16.07,0,0,0,1.4,8l-2.72.4c.31-1.59.66-3.12,1-4.67s.81-3.07,1.31-4.6a33.23,33.23,0,0,1,1.77-4.56,12.54,12.54,0,0,1,1.38-2.27,5,5,0,0,1,1.2-1.1,2.85,2.85,0,0,1,2.19-.37l1.56.42-.68,1.46a28.48,28.48,0,0,0-2.34,7.49,30.84,30.84,0,0,0-.31,7.86,37.55,37.55,0,0,0,4.85,15.08l-1.92.52c0-1.3.13-2.55.27-3.81a35.27,35.27,0,0,1,.64-3.79,16,16,0,0,1,1.31-3.72,6.68,6.68,0,0,1,1.29-1.72,3.61,3.61,0,0,1,2.14-1l1-.1-.09,1c-.23,2.37-.37,4.78-.44,7.17s-.08,4.8,0,7.2a43.32,43.32,0,0,0,.87,7.1,17.66,17.66,0,0,0,1.08,3.37,7.52,7.52,0,0,0,2,2.81l-.46.34a13.16,13.16,0,0,1-.54-2.88,14,14,0,0,1,.06-2.89,13.29,13.29,0,0,1,.62-2.81,14.7,14.7,0,0,1,1.16-2.63,14.63,14.63,0,0,0-1,2.67,14.78,14.78,0,0,0-.36,5.61,12.83,12.83,0,0,0,.63,2.72l.34.94-.8-.6a8.27,8.27,0,0,1-2.3-3,19.06,19.06,0,0,1-1.26-3.48,44.37,44.37,0,0,1-1.21-7.23,91.23,91.23,0,0,1-.08-14.6l.93.91a3,3,0,0,0-2,1.88,14.42,14.42,0,0,0-1.07,3.31,30.36,30.36,0,0,0-.5,3.57c-.11,1.21-.17,2.44-.17,3.62v3.74l-1.92-3.22A39.61,39.61,0,0,1,862.52,218a31.68,31.68,0,0,1,.2-8.53,30.83,30.83,0,0,1,2.45-8.19l.88,1.87s.09,0,0,.07a2.57,2.57,0,0,0-.5.5,10.06,10.06,0,0,0-1,1.76,32.21,32.21,0,0,0-1.57,4.2,91.27,91.27,0,0,0-2.2,8.95l-.82,4.18L858,219a19.08,19.08,0,0,1-1.75-9.41,39.69,39.69,0,0,1,1.6-9.13,66.85,66.85,0,0,1,3.15-8.56,79.61,79.61,0,0,1,4.15-8.12l.24,1.82a2.36,2.36,0,0,0-1.73-.8,3.78,3.78,0,0,0-2,.87,17.33,17.33,0,0,0-3.73,4.34,52.41,52.41,0,0,0-3,5.3c-.9,1.82-1.75,3.72-2.48,5.59l-2.27,5.78-.41-6.15a29.15,29.15,0,0,1,1.16-9.62,51,51,0,0,1,3.46-8.82,78.85,78.85,0,0,1,4.69-8.14,92.2,92.2,0,0,1,5.5-7.6l.31,1.56a2.93,2.93,0,0,0-2.81.06,10.53,10.53,0,0,0-2.85,2.1,26.87,26.87,0,0,0-2.45,2.84,37.32,37.32,0,0,0-2.1,3.14l-2,3.36.41-3.82a41.91,41.91,0,0,1,2-10.12l.4-1.23c.14-.4.33-.79.49-1.19l1-2.37a49,49,0,0,1,2.5-4.49,49.76,49.76,0,0,1,6.27-8.08A47.31,47.31,0,0,1,873.65,141.6Z" transform="translate(-231 -22.1)"/><path class="cls-1" d="M1040.52,143.25a36.3,36.3,0,0,1,7.39,5.44,37.23,37.23,0,0,1,5.81,7.17,37.71,37.71,0,0,1,3.89,8.43,39.08,39.08,0,0,1,1.72,9.17l.37,5.39-2.1-5a18.73,18.73,0,0,0-5.08-7.06,15.54,15.54,0,0,0-7.75-3.55l1-2a43,43,0,0,1,6.21,8,42.29,42.29,0,0,1,4.17,9.25,44.61,44.61,0,0,1,1.93,10,47.24,47.24,0,0,1-.4,10.15l-2.9-.3a22.29,22.29,0,0,0-.55-6.16,16.31,16.31,0,0,0-2.42-5.52,13.52,13.52,0,0,0-2-2.16,9.46,9.46,0,0,0-8.1-2.08l.71-2.58a29.52,29.52,0,0,1,9.75,16.52,29,29,0,0,1,.32,9.69,29.69,29.69,0,0,1-2.78,9.26l-1.67,3.4-.68-3.71a87.12,87.12,0,0,0-2.13-9,32.63,32.63,0,0,0-1.55-4.26,10.22,10.22,0,0,0-1-1.82,3,3,0,0,0-.58-.59.79.79,0,0,0-.32-.12l.63-1.42a22.91,22.91,0,0,1,2,14.3,29.35,29.35,0,0,1-6.18,12.89l-1.14,1.39.43-1.73a19.1,19.1,0,0,0-1.51-13.26,19.09,19.09,0,0,1,2.41,6.47,19.45,19.45,0,0,1-.12,7l-.7-.34a28.1,28.1,0,0,0,5.33-12.62,21.21,21.21,0,0,0-2.34-13.16l-.59-1.08,1.22-.34a2.53,2.53,0,0,1,1.92.32,4.41,4.41,0,0,1,1.11,1,11.75,11.75,0,0,1,1.36,2.19,37.08,37.08,0,0,1,1.79,4.51,88.62,88.62,0,0,1,2.42,9.22l-2.35-.31a27.36,27.36,0,0,0,2-17.29,23.56,23.56,0,0,0-1.29-4.21,25.42,25.42,0,0,0-2-3.95,27.46,27.46,0,0,0-5.68-6.7l-2.4-2,3.12-.53a12.46,12.46,0,0,1,10.52,2.71,15.12,15.12,0,0,1,2.47,2.72,19.16,19.16,0,0,1,2.86,6.56,25,25,0,0,1,.58,7l-2.9-.3a44.57,44.57,0,0,0,.42-9.52,41.25,41.25,0,0,0-11.13-25.8l-2.39-2.57,3.43.61a17.83,17.83,0,0,1,8.75,4.27,20.27,20.27,0,0,1,5.36,8l-1.73.38a38.52,38.52,0,0,0-1.34-8.85,36.09,36.09,0,0,0-3.36-8.32,35.58,35.58,0,0,0-5.34-7.29A38.43,38.43,0,0,0,1040.52,143.25Z" transform="translate(-231 -22.1)"/><line class="cls-3" x1="886" y1="159.9" x2="1448" y2="159.9"/><line class="cls-3" y1="157.9" x2="562" y2="157.9"/><text class="cls-4" transform="translate(111 129.81)">E<tspan class="cls-5" x="29.48" y="0">V</tspan><tspan class="cls-6" x="60.41" y="0">E</tspan><tspan class="cls-7" x="90.28" y="0">R</tspan><tspan class="cls-8" x="121.99" y="0">Y</tspan><tspan class="cls-9" x="150.66" y="0">THING </tspan><tspan class="cls-10" x="312.04" y="0">Y</tspan><tspan class="cls-9" x="339.84" y="0">OU</tspan></text><text class="cls-11" transform="translate(226 246.04)">ABO<tspan class="cls-12" x="209.65" y="0">U</tspan><tspan x="279.66" y="0">T</tspan></text><text class="cls-11" transform="translate(899 246.04)">ANIMA<tspan class="cls-13" x="324.56" y="0">L</tspan><tspan class="cls-14" x="380.62" y="0">S</tspan></text><text class="cls-15" transform="translate(928 130.81)">NEED <tspan class="cls-7" x="145.35" y="0">T</tspan><tspan x="171.6" y="0">O KN</tspan><tspan class="cls-16" x="289.53" y="0">O</tspan><tspan class="cls-9" x="325.18" y="0">W</tspan></text></svg>
