<svg id="Warstwa_1" data-name="Warstwa 1" xmlns="http://www.w3.org/2000/svg" viewBox="0 0 688.38 290.9"><defs><style>.cls-1{fill:#1d1d1b;}.cls-2,.cls-3{fill:none;}.cls-3{stroke:#1d1d1b;stroke-miterlimit:10;stroke-width:3px;}.cls-4{font-size:48px;font-family:Montserrat-Regular, Montserrat;}.cls-5{letter-spacing:-0.01em;}.cls-6{letter-spacing:-0.01em;}.cls-7{letter-spacing:0.01em;}.cls-8{letter-spacing:0em;}.cls-9{letter-spacing:-0.02em;}.cls-10{letter-spacing:-0.02em;}.cls-11{letter-spacing:-0.01em;}.cls-12{letter-spacing:0em;}</style></defs><title>lion</title><path class="cls-1" d="M154.28,225.34c2.61-.54,5.22-1,7.84-1.37s5.26-.73,7.9-1,5.29-.52,8-.62c1.33-.06,2.67-.1,4-.08a18.26,18.26,0,0,1,2.07.1,10.49,10.49,0,0,1,1.08.12l1.19.25,2.35.51L187,225.11,183.4,229c-1.22,1.25-2.45,2.5-3.7,3.73s-2.51,2.46-3.86,3.62c-.67.59-1.35,1.16-2.11,1.72a7.37,7.37,0,0,1-1.32.84l-.24.11-.35.1a2.64,2.64,0,0,1-.6,0,3.89,3.89,0,0,1-.94-.14,18.14,18.14,0,0,1-5-2.61,20.87,20.87,0,0,1-4.08-3.63,6.29,6.29,0,0,1-.82-1.25c-.1-.25-.22-.61-.25-.7a1.66,1.66,0,0,0-.19-.47,8.09,8.09,0,0,0-1.57-1.85A31.49,31.49,0,0,0,154.28,225.34Zm0,0a24.35,24.35,0,0,1,4.71,2.41,8.85,8.85,0,0,1,2.06,1.88,2.74,2.74,0,0,1,.41.69,3.43,3.43,0,0,0,.26.5,4.93,4.93,0,0,0,.71.85,22.44,22.44,0,0,0,4,2.92,16.73,16.73,0,0,0,4.39,1.94c.12,0,.35.07.36,0h0l.06,0a6.51,6.51,0,0,0,.84-.61c.62-.51,1.25-1.08,1.86-1.67,1.23-1.18,2.45-2.4,3.67-3.63s2.41-2.48,3.59-3.75l3.6-3.75.61,2.37-.75-.16c-.25-.06-.6-.07-.89-.11-.59-.08-1.24-.09-1.88-.13-1.27-.07-2.58-.1-3.89-.1-2.61,0-5.24,0-7.88.1l-7.92.16Q158.27,225.34,154.28,225.34Z" transform="translate(-38.62 -48.1)"/><path class="cls-1" d="M168.53,257.65a11,11,0,0,1,4.24,1.35,10,10,0,0,1,3,3.25c.84,1.23,1.72,2.42,2.66,3.57a24.28,24.28,0,0,0,2.93,3.27,12.45,12.45,0,0,0,8.18,2.4,11.85,11.85,0,0,0,7.61-3.59l-.14.28a69.68,69.68,0,0,1,7.84-24.93,76.71,76.71,0,0,1,7.34-10.9l2-2.55c.67-.84,1.17-1.75,1.74-2.62a9.16,9.16,0,0,0,.74-1.38l.69-1.42c.41-1,.73-2,1.11-3a47.74,47.74,0,0,0,2-12.56A90.42,90.42,0,0,0,220,196a174.41,174.41,0,0,0-4.86-25.37c-2.18-8.36-4.82-16.6-7.8-24.71-.74-2-1.51-4.05-2.32-6l-.3-.75a2,2,0,0,0-.12-.27l-.16-.29c-.25-.41-.52-.83-.82-1.23a17.94,17.94,0,0,0-2-2.28A27.22,27.22,0,0,0,191,128.89a43.51,43.51,0,0,0-12.4-1.93h-3.18c-1.06.05-2.12.15-3.18.23-2.09.13-4.31.38-6.47.59-4.36.38-8.75.58-13,.84-1.06.07-2.13.14-3.15.29a26.42,26.42,0,0,0-3,.55,12.91,12.91,0,0,0-1.41.46l-.7.24c-.23.09-.44.22-.66.33l-1.31.69-1.22.87c-3.23,2.42-5.89,5.89-8.48,9.28s-5.07,7-7.55,10.55a88.83,88.83,0,0,0-11.47,22.84,87.81,87.81,0,0,0-4.45,25.19l-.08,3.21.1,3.21,0,1.6c0,.53.09,1.06.14,1.6l.3,3.19a57.64,57.64,0,0,0,3,12.37c.42,1,.77,2,1.25,2.89s1,1.82,1.57,2.71c1.19,1.79,2.41,3.56,3.7,5.29,2.56,3.47,5.29,6.84,7.93,10.31a121.51,121.51,0,0,1,7.46,10.78c1.12,1.88,2.2,3.79,3.19,5.74.48,1,1,1.95,1.44,2.95l.67,1.5.33.75a3.56,3.56,0,0,0,.17.34,2.12,2.12,0,0,0,.12.2,1.65,1.65,0,0,0,1,.5,5.8,5.8,0,0,0,1.46.07,18.83,18.83,0,0,0,3.1-.49c1-.24,2.09-.52,3.11-.82a11.09,11.09,0,0,0,2.83-1.28,64.31,64.31,0,0,1,11.44-6.32c1-.42,2-.77,3-1.26a6.57,6.57,0,0,0,2.21-2.15,14.18,14.18,0,0,0,2-6c.31-2.14.59-4.3.74-6.46a44.09,44.09,0,0,0-.07-6.5,45.69,45.69,0,0,1,.28,6.51c-.08,2.18-.29,4.34-.53,6.51a14.57,14.57,0,0,1-2,6.27,7.34,7.34,0,0,1-2.37,2.4c-1,.56-2,.92-3,1.37a64.18,64.18,0,0,0-11.17,6.51,11.64,11.64,0,0,1-3,1.48c-1.05.33-2.09.64-3.16.91a19.74,19.74,0,0,1-3.31.6,7.12,7.12,0,0,1-1.78,0,2.94,2.94,0,0,1-1.83-.93,5.52,5.52,0,0,1-.32-.47c-.09-.17-.12-.26-.19-.39l-.35-.73-.7-1.46c-.45-1-1-1.91-1.47-2.87-1-1.9-2.09-3.77-3.22-5.59a117.08,117.08,0,0,0-7.51-10.53c-2.67-3.4-5.45-6.74-8.1-10.22-1.33-1.73-2.6-3.51-3.84-5.32-.63-.89-1.15-1.94-1.73-2.9s-.92-2-1.39-3.06A60.69,60.69,0,0,1,107.51,213l-.36-3.29c-.05-.55-.12-1.09-.17-1.64l-.07-1.65-.15-3.31,0-3.3A91,91,0,0,1,123,150.29c2.47-3.58,4.92-7.17,7.56-10.68,1.28-1.76,2.68-3.48,4.11-5.18.76-.82,1.48-1.67,2.29-2.46l1.27-1.16.63-.58.71-.51,1.42-1c.52-.29,1.05-.56,1.57-.83a8.52,8.52,0,0,1,.8-.4l.83-.3a17.33,17.33,0,0,1,1.68-.55,27.08,27.08,0,0,1,3.38-.63c1.12-.17,2.23-.26,3.33-.34,4.39-.3,8.68-.45,13-.81,2.15-.19,4.25-.42,6.49-.56,1.11-.07,2.21-.17,3.32-.22l3.34,0a46.37,46.37,0,0,1,13.22,2.13,30,30,0,0,1,11.65,6.92,20.42,20.42,0,0,1,2.27,2.62,15.81,15.81,0,0,1,1,1.48l.23.43c.1.19.15.33.21.46l.31.77c.8,2,1.57,4.08,2.32,6.13,3,8.2,5.59,16.53,7.75,25a162.69,162.69,0,0,1,4.66,25.79,93.34,93.34,0,0,1,.33,13.17A49.44,49.44,0,0,1,220.35,222c-.41,1-.77,2.1-1.22,3.12l-.75,1.51a11.73,11.73,0,0,1-.82,1.47c-.63.93-1.2,1.92-1.9,2.77l-2.06,2.55A75,75,0,0,0,206.25,244,69.75,69.75,0,0,0,198,268.31l0,.17-.12.11a12.7,12.7,0,0,1-8.27,3.65,13.07,13.07,0,0,1-8.54-2.72,24.26,24.26,0,0,1-2.93-3.44c-.91-1.18-1.75-2.42-2.56-3.67a9.65,9.65,0,0,0-2.89-3.29A10.74,10.74,0,0,0,168.53,257.65Z" transform="translate(-38.62 -48.1)"/><path class="cls-1" d="M139.86,268.59a60.14,60.14,0,0,0,3.38,11.67c.73,1.86,1.61,3.7,2.48,5.53a29.88,29.88,0,0,0,2.94,5.1,15.19,15.19,0,0,0,9.35,5.83,64.37,64.37,0,0,0,11.9.68,57.1,57.1,0,0,0,11.86-.64,16.05,16.05,0,0,0,5.25-2,17.08,17.08,0,0,0,4.21-3.76,21.91,21.91,0,0,0,2.94-5c.39-.91.73-1.83,1.05-2.79a10.54,10.54,0,0,0,.38-1.38l.27-1.48c.68-4,1.12-8.05,1.67-12.11.11,4.1.07,8.18-.21,12.29,0,.52-.09,1-.15,1.56a11.76,11.76,0,0,1-.31,1.59,30.55,30.55,0,0,1-.87,3,22.54,22.54,0,0,1-2.9,5.7,17.82,17.82,0,0,1-4.67,4.57,19.14,19.14,0,0,1-6,2.56c-4.24.95-8.43.84-12.5.86s-8.23,0-12.49-.92a17.27,17.27,0,0,1-10.65-7.24,30,30,0,0,1-2.82-5.67c-.73-1.92-1.48-3.83-2.08-5.82A47.63,47.63,0,0,1,139.86,268.59Z" transform="translate(-38.62 -48.1)"/><path class="cls-1" d="M160.55,262.05a13,13,0,0,1,3.65-1.91,10.61,10.61,0,0,1,4.19-.68,9.14,9.14,0,0,1,1.14.15,7.2,7.2,0,0,1,1.11.34c.67.28,1.17.53,1.75.8a22.12,22.12,0,0,1,3.54,1.92,11.05,11.05,0,0,1-4.15.36,15.68,15.68,0,0,1-2-.37,9.34,9.34,0,0,0-1.6-.21c-1.06-.08-2.28,0-3.6,0A17.88,17.88,0,0,1,160.55,262.05Z" transform="translate(-38.62 -48.1)"/><path class="cls-1" d="M238.21,114.74a20.62,20.62,0,0,1,5.8-7.93,22.09,22.09,0,0,1,9-4.43,20.24,20.24,0,0,1,10.25.18,24.17,24.17,0,0,1,9,5,24.56,24.56,0,0,1,6.18,8.16,20.6,20.6,0,0,1,.93,2.45,16.17,16.17,0,0,1,.52,2.6,12.25,12.25,0,0,1,0,2.71l-.26,1.36a13.36,13.36,0,0,1-.45,1.3c-1.46,3.37-4.15,5.61-6.84,7.49A39.12,39.12,0,0,1,263.6,138a56.06,56.06,0,0,0,7.88-5.56c2.38-2.05,4.6-4.45,5.54-7.15a8.47,8.47,0,0,0,.26-4.19,14.69,14.69,0,0,0-.52-2.13,18.66,18.66,0,0,0-.89-2,22.59,22.59,0,0,0-5.59-7.12,21.69,21.69,0,0,0-7.81-4.52,18.86,18.86,0,0,0-9-.61,23.58,23.58,0,0,0-4.46,1.21,19.73,19.73,0,0,0-4.15,2.1A23.65,23.65,0,0,0,238.21,114.74Z" transform="translate(-38.62 -48.1)"/><path class="cls-1" d="M102.87,119.34a28.25,28.25,0,0,0-10.34-11.58A25.85,25.85,0,0,0,88,105.4a22,22,0,0,0-19.37,1.19,28.35,28.35,0,0,0-4.2,2.83c-1.3,1.07-2.67,2.3-3.85,3.45a10.09,10.09,0,0,0-2.65,3.89,11,11,0,0,0-.54,4.7A23.88,23.88,0,0,0,60.8,131a53.76,53.76,0,0,0,6.32,8.51,40.22,40.22,0,0,1-7.55-7.7A23.64,23.64,0,0,1,55,121.75a12.55,12.55,0,0,1,.38-5.85,12.86,12.86,0,0,1,3.1-5,54.41,54.41,0,0,1,4-3.74,30.8,30.8,0,0,1,4.61-3.2,24,24,0,0,1,10.83-3,23.48,23.48,0,0,1,10.93,2.35,27.17,27.17,0,0,1,8.77,6.63A23.27,23.27,0,0,1,102.87,119.34Z" transform="translate(-38.62 -48.1)"/><path class="cls-1" d="M91.41,106.09A10.2,10.2,0,0,1,97,103.56a10.83,10.83,0,0,1,6.07,1.06l-.23.23a20.86,20.86,0,0,0-4.7-5.66,19.11,19.11,0,0,0-6.41-3.54,19.71,19.71,0,0,0-7.24-.89,22.7,22.7,0,0,0-7.11,1.61l-.45-.88a52.63,52.63,0,0,1,8.4-4.27,36.11,36.11,0,0,1,9.17-2.38,28.22,28.22,0,0,1,9.52.48,46.44,46.44,0,0,1,8.94,3.14c1.43.63,2.84,1.3,4.25,1.86a14.82,14.82,0,0,0,2.08.68A3,3,0,0,0,121,95a1.62,1.62,0,0,0,.84-1.18,5.71,5.71,0,0,0,0-2,14.08,14.08,0,0,0-1.37-4.12,13.31,13.31,0,0,0-6.31-5.76,21.79,21.79,0,0,0-8.63-1.9l-5.69-.15L105.2,78a37.27,37.27,0,0,1,10.06-2,33,33,0,0,1,10.28,1,28.91,28.91,0,0,1,9.39,4.43,30.06,30.06,0,0,1,7.21,7.46l-1.73-.37a14.89,14.89,0,0,0,4-3.59,20.45,20.45,0,0,0,1.48-2.32,11.23,11.23,0,0,0,1-2.4,6.23,6.23,0,0,0-.6-4.72,10,10,0,0,0-3.62-3.57L134.51,67l9.1,2.33c.59.15,1.17.29,1.75.45s1.16.38,1.71.64a14.91,14.91,0,0,1,3.2,1.86A13,13,0,0,1,152.85,75a12.25,12.25,0,0,1,.94,1.66,9.69,9.69,0,0,1,.65,1.93L152,78.05a6.94,6.94,0,0,0,.83-5.52,21.27,21.27,0,0,0-2.39-6,45.71,45.71,0,0,0-3.72-5.53,60.65,60.65,0,0,0-4.37-5l-7.7-7.9L144,53.76c1.44.86,2.89,1.7,4.31,2.59l2,1.49a18.71,18.71,0,0,1,2,1.56l1.89,1.69a8.4,8.4,0,0,1,.9.89l.86.94a36.33,36.33,0,0,1,3.19,4,31.71,31.71,0,0,1,4.21,9.31,21.32,21.32,0,0,1,.55,2.52c.18.84.22,1.7.32,2.56a23,23,0,0,1-.17,5.28l-2.56-1.33a96.23,96.23,0,0,1,8.49-7.7A81.39,81.39,0,0,1,179.41,71,46.13,46.13,0,0,1,190,66.24a22.09,22.09,0,0,1,11.89-.35L209.62,68l-8,.63a22.3,22.3,0,0,0-5.18,1.1,18.3,18.3,0,0,0-4.69,2.37,12.06,12.06,0,0,0-3.44,3.75,13.23,13.23,0,0,0-1.64,4.84l-2-1.37a66,66,0,0,1,26-7.68A68.71,68.71,0,0,1,237.52,75L245,77.4l-7.87-.08a34.46,34.46,0,0,0-13.06,2.12,19.2,19.2,0,0,0-2.9,1.46,18.18,18.18,0,0,0-2.65,1.88,5.75,5.75,0,0,0-1.7,2.31,3.3,3.3,0,0,0,.15,2.57l-1.7-.27a17.77,17.77,0,0,1,3.51-2.9,16.26,16.26,0,0,1,2-1,10.71,10.71,0,0,1,1-.47l1.08-.35a21.9,21.9,0,0,1,8.91-.72,35.62,35.62,0,0,1,8.55,2.15,47,47,0,0,1,7.86,3.87l4.29,2.64-4.9-1.15c-2.65-.62-5.36-1.12-8.06-1.49a44.18,44.18,0,0,0-8.1-.45,12.06,12.06,0,0,0-3.81.76,2.65,2.65,0,0,0-1.91,2.54A7.91,7.91,0,0,0,227,94.34a26,26,0,0,0,2.38,3.27l-.1-.08L237,103l-.51,0a30,30,0,0,1,10.12-5.39A29.53,29.53,0,0,1,258,96.52l.94.1-.91.24a14.29,14.29,0,0,0-5.41,2.56,6.32,6.32,0,0,0-1.87,2.33,3.86,3.86,0,0,0-.06,3,3.85,3.85,0,0,1,0-3,6.36,6.36,0,0,1,1.83-2.43A14.79,14.79,0,0,1,258,96.53l0,.33a29.77,29.77,0,0,0-11.14,1.39,29.22,29.22,0,0,0-9.77,5.46l-.24.2-.27-.18-7.84-5.35-.05,0,0,0a26.27,26.27,0,0,1-2.55-3.36,8.88,8.88,0,0,1-1.52-4.13,3.55,3.55,0,0,1,.7-2.33,4.72,4.72,0,0,1,1.88-1.42,13.15,13.15,0,0,1,4.25-1,43.57,43.57,0,0,1,8.4.31q4.14.51,8.23,1.42l-.62,1.49a45.34,45.34,0,0,0-7.61-3.62,33.55,33.55,0,0,0-8.13-1.94,20,20,0,0,0-8.12.75l-1,.31c-.32.12-.61.29-.92.43a16.85,16.85,0,0,0-1.78,1,16.32,16.32,0,0,0-3.08,2.61l-1,1.13-.66-1.4a5.88,5.88,0,0,1-.55-2,5.53,5.53,0,0,1,.27-2.11,7.89,7.89,0,0,1,2.26-3.24A19.88,19.88,0,0,1,220,79a21.83,21.83,0,0,1,3.22-1.67,36.52,36.52,0,0,1,13.93-2.46l-.38,2.36A69.67,69.67,0,0,0,224,74.51,63.41,63.41,0,0,0,198,76.7a64.37,64.37,0,0,0-12.07,5l-2.48,1.35.48-2.71a16,16,0,0,1,2-5.89,15.09,15.09,0,0,1,4.18-4.6,21.2,21.2,0,0,1,5.42-2.77,24.74,24.74,0,0,1,5.93-1.27l-.31,2.76a19.3,19.3,0,0,0-10.34.4,42.44,42.44,0,0,0-9.9,4.47,76.81,76.81,0,0,0-9,6.37,95.12,95.12,0,0,0-8.17,7.46l-3.28,3.38.72-4.71a14.37,14.37,0,0,0,.19-2.17c0-.76,0-1.53,0-2.3s-.12-1.53-.29-2.29a17.47,17.47,0,0,0-.48-2.26,28.67,28.67,0,0,0-3.78-8.43,33.05,33.05,0,0,0-2.9-3.66l-.79-.87a7.23,7.23,0,0,0-.83-.83l-1.75-1.57a18.94,18.94,0,0,0-1.85-1.47l-1.91-1.4c-1.33-.85-2.71-1.65-4.06-2.47L144.34,54a62.26,62.26,0,0,1,4.59,5.34,48.08,48.08,0,0,1,3.92,5.88A23.44,23.44,0,0,1,155.51,72a11.88,11.88,0,0,1,.16,3.87,8.35,8.35,0,0,1-1.47,3.77l-1.81,2.54-.64-3.1a6.72,6.72,0,0,0-.43-1.26,9.22,9.22,0,0,0-.71-1.26,10,10,0,0,0-2-2.15,12.51,12.51,0,0,0-2.6-1.53c-.46-.22-1-.35-1.44-.54l-1.51-.39.94-2.46a12.68,12.68,0,0,1,4.62,4.61,8.93,8.93,0,0,1,.8,6.66,13.19,13.19,0,0,1-1.27,3,21.62,21.62,0,0,1-1.69,2.63,17.52,17.52,0,0,1-4.71,4.21l-1.05.64-.68-1a28.22,28.22,0,0,0-6.57-6.87,26.34,26.34,0,0,0-8.53-4.16,30.82,30.82,0,0,0-9.53-1A34.81,34.81,0,0,0,105.91,80l-.33-2.07A23.87,23.87,0,0,1,115,80.13a15.25,15.25,0,0,1,7.14,6.7,16,16,0,0,1,1.49,4.73,7.26,7.26,0,0,1-.06,2.66,3.38,3.38,0,0,1-1.88,2.39,4.67,4.67,0,0,1-2.85.09,16.48,16.48,0,0,1-2.34-.79c-1.47-.61-2.87-1.3-4.28-1.94a45.33,45.33,0,0,0-8.6-3.15,28,28,0,0,0-9-.62,35.31,35.31,0,0,0-8.9,2.12,51.58,51.58,0,0,0-8.3,4L77,95.45a23.84,23.84,0,0,1,7.45-1.53A20.57,20.57,0,0,1,91.91,95a19.53,19.53,0,0,1,6.53,3.78,20.65,20.65,0,0,1,4.66,5.9l.26.49-.49-.26A10.55,10.55,0,0,0,97,103.73,10.19,10.19,0,0,0,91.41,106.09Z" transform="translate(-38.62 -48.1)"/><path class="cls-1" d="M62.64,134.93a14.84,14.84,0,0,0-6.11-2.24,8,8,0,0,0-3.17.28l-.77.2a6.66,6.66,0,0,0-.73.31,7,7,0,0,0-1.4.75,17.33,17.33,0,0,0-4.56,4.44,33.33,33.33,0,0,0-3.29,5.56c-.46,1-.9,2-1.28,3-.19.51-.38,1-.54,1.51l-.1.31a.87.87,0,0,0-.15-.71,1,1,0,0,0-.28-.24l-.07,0s0,0-.13-.07a1,1,0,0,0-.7-.08,1,1,0,0,0-.68.59l0-.05,0-.1c.1-.27.21-.55.32-.82a15.13,15.13,0,0,1,4.11-5.81,11.2,11.2,0,0,1,3.21-1.88,10.78,10.78,0,0,1,3.67-.64,17.32,17.32,0,0,1,7,1.6l2,.88-1.72,1.42a27.19,27.19,0,0,0-8,11.13,31,31,0,0,0-1.7,6.72,36.05,36.05,0,0,0-.25,7l-3,0a19.27,19.27,0,0,1,1.5-6.58,15.35,15.35,0,0,1,4-5.56A11.74,11.74,0,0,1,56.33,153a13.1,13.1,0,0,1,6.77,1.3l2.61,1.22-2.62,1.15a19.42,19.42,0,0,0-5.5,3.57,18.84,18.84,0,0,0-3.94,5.28,26.33,26.33,0,0,0-2.53,13.17l-1.42-.12a18.82,18.82,0,0,1,5-8.23,17.88,17.88,0,0,1,3.89-2.82,18.56,18.56,0,0,1,4.47-1.62,18.26,18.26,0,0,0-7.8,5A17.58,17.58,0,0,0,51.1,179l-.93,4.09-.49-4.21a29,29,0,0,1,.07-7.21,23.89,23.89,0,0,1,2-7,21.43,21.43,0,0,1,4.2-6.07A20.78,20.78,0,0,1,62,154.31l0,2.37a10.3,10.3,0,0,0-5.39-.93A8.87,8.87,0,0,0,51.79,158a12.55,12.55,0,0,0-3.21,4.53,16.45,16.45,0,0,0-1.22,5.56l-3,0a35.58,35.58,0,0,1,.25-7.58,33.48,33.48,0,0,1,1.93-7.37,28.62,28.62,0,0,1,9-12.18l.3,2.3A14.58,14.58,0,0,0,50,141.77a8.34,8.34,0,0,0-5.38,1.79A12.86,12.86,0,0,0,41,148.38c-.11.23-.21.47-.31.71l0,.1,0,.05a1.1,1.1,0,0,1-1.44.65c-.09,0-.12,0-.13-.07l-.06-.06a1.21,1.21,0,0,1-.26-.34,1.29,1.29,0,0,1-.09-.91l.16-.47c.21-.55.43-1.07.66-1.59.45-1,1-2,1.49-3a34.93,34.93,0,0,1,3.75-5.66,18.36,18.36,0,0,1,5.22-4.42,8,8,0,0,1,1.58-.7,6,6,0,0,1,.81-.28l.86-.17a8.52,8.52,0,0,1,3.41,0A14.17,14.17,0,0,1,62.64,134.93Z" transform="translate(-38.62 -48.1)"/><path class="cls-1" d="M100.6,289.79a40.63,40.63,0,0,0,3.43,12,38.35,38.35,0,0,0,6.89,10.11,40.51,40.51,0,0,0,4.49,4.11,18.05,18.05,0,0,0,2.41,1.61l.09.05h0l-.11,0h-.09a1.26,1.26,0,0,0-.39,0,1.32,1.32,0,0,0-.75.35,1.48,1.48,0,0,0-.43.75,1.46,1.46,0,0,0,0,.71,1.11,1.11,0,0,0,.12.27l.06.09c.06.07,0,.06,0,.06l-.1-.1-.58-.56c-.4-.4-.78-.83-1.15-1.27a15.15,15.15,0,0,1-3.11-13.09l.67-2.93,1.92,2.3c1.49,1.81,3.1,3.6,4.72,5.33s3.28,3.46,5,5.09a64.73,64.73,0,0,0,5.35,4.63,20.36,20.36,0,0,0,5.95,3.37l-.67,1.54a20.57,20.57,0,0,1-5.18-5.39,19.55,19.55,0,0,1-2.82-6.78,21.7,21.7,0,0,0,3.62,6.18,21.47,21.47,0,0,0,5.32,4.57l4.26,2.61-4.93-1.07a19.83,19.83,0,0,1-6.84-3.2,52.58,52.58,0,0,1-5.82-4.52q-2.74-2.44-5.31-5.05c-1.69-1.76-3.32-3.54-4.92-5.42l2.58-.63a13.43,13.43,0,0,0,0,5.61,12.12,12.12,0,0,0,2.45,5c.3.37.61.73,1,1.08l.54.56.17.18c0,.05.08.08.17.2a1.51,1.51,0,0,1,.09.13,3.09,3.09,0,0,1,.14.32,1.45,1.45,0,0,1,0,.74,1.53,1.53,0,0,1-.43.76,1.6,1.6,0,0,1-.8.36,1.38,1.38,0,0,1-.41,0h-.07l-.1,0-.2-.06-.17-.08-.25-.13a21.6,21.6,0,0,1-2.77-2,36.51,36.51,0,0,1-4.62-4.6,39,39,0,0,1-3.76-5.29,37.51,37.51,0,0,1-2.74-5.85A34,34,0,0,1,100.6,289.79Z" transform="translate(-38.62 -48.1)"/><path class="cls-1" d="M243.29,274.33a20.43,20.43,0,0,1,1.21,10.8,20.76,20.76,0,0,1-4.64,10.07l-3,3.5,1.49-4.4a9,9,0,0,0,.44-3.14,8,8,0,0,0-5.09-7.18l1.68-1.24a34,34,0,0,1,.07,7.87,35.15,35.15,0,0,1-9.89,21.15l-5.47,5.66,3-7.28a13.79,13.79,0,0,0-.75-12.29,15.94,15.94,0,0,0-2.62-3.38l2.35-1.14a32.56,32.56,0,0,1-.91,10,31.62,31.62,0,0,1-1.68,4.76,28.29,28.29,0,0,1-2.48,4.39,27.51,27.51,0,0,1-7,7.08,29.19,29.19,0,0,1-8.94,4.17l-2.54.71,2.1-1.53a10.15,10.15,0,0,0,4.1-8.16,10.14,10.14,0,0,1-.63,4.83,10.84,10.84,0,0,1-2.87,4.07l-.44-.83a29.32,29.32,0,0,0,8.25-4.57,27.32,27.32,0,0,0,6.19-7,26.07,26.07,0,0,0,2.12-4.14,31.05,31.05,0,0,0,1.36-4.43,29.68,29.68,0,0,0,.61-9.2L219,290l2.7,2.47a16.77,16.77,0,0,1,4.23,18.86l-2.46-1.62A34,34,0,0,0,233,283l-.17-2.08,1.85.83a10.72,10.72,0,0,1,3.25,2.26,10,10,0,0,1,2.16,3.3,9.61,9.61,0,0,1,.7,3.84,10.5,10.5,0,0,1-.76,3.79l-1.48-.9a20.25,20.25,0,0,0,5-9.1A21.28,21.28,0,0,0,243.29,274.33Z" transform="translate(-38.62 -48.1)"/><path class="cls-2" d="M254.52,211.61" transform="translate(-38.62 -48.1)"/><path class="cls-1" d="M226.73,122.32a25.78,25.78,0,0,1,4.35-4.51,25.11,25.11,0,0,1,5.4-3.4,19.29,19.29,0,0,1,6.29-1.69,17.82,17.82,0,0,1,6.61.67l4,1-4,1.52c-1.08.41-2.2.9-3.26,1.41S244,118.4,243,119a14.88,14.88,0,0,0-2.66,2,5.12,5.12,0,0,0-.84,1.08,1.44,1.44,0,0,0-.21.84l-2.24-1a14.65,14.65,0,0,1,2.59-1.17,19,19,0,0,1,2.66-.72,16.07,16.07,0,0,1,5.49-.1,15.1,15.1,0,0,1,5.19,1.7,16.92,16.92,0,0,1,2.3,1.42c.72.52,1.38,1.13,2,1.7l2.16,1.86-2.81-.13c-1.1,0-2.26,0-3.39,0s-2.28.09-3.41.22a17.64,17.64,0,0,0-3.31.66,5.68,5.68,0,0,0-1.49.71,2.09,2.09,0,0,0-.91,1.37,2.26,2.26,0,0,1,.68-1.62,5.45,5.45,0,0,1,1.47-1.06,15.1,15.1,0,0,1,3.35-1.21,31.88,31.88,0,0,1,3.48-.67c1.17-.16,2.33-.29,3.53-.36l-.65,1.73c-.67-.45-1.29-1-2-1.38a16.22,16.22,0,0,0-2.11-1.09,14.8,14.8,0,0,0-4.48-1.19,14.59,14.59,0,0,0-4.61.27,17.06,17.06,0,0,0-2.22.64,13.57,13.57,0,0,0-2,.94l-1.88,1.1-.37-2.11a4.37,4.37,0,0,1,.48-2.72,7.13,7.13,0,0,1,1.4-1.82,17.3,17.3,0,0,1,3.26-2.37,35.64,35.64,0,0,1,3.43-1.74c1.18-.5,2.34-.94,3.58-1.35V116l-1.38-.39-.69-.19-.7-.1c-.48,0-1-.15-1.42-.19l-1.45,0a19.79,19.79,0,0,0-5.75,1,28.88,28.88,0,0,0-5.45,2.59A33.49,33.49,0,0,0,226.73,122.32Z" transform="translate(-38.62 -48.1)"/><path class="cls-1" d="M108,134.71a27.38,27.38,0,0,0-.28-5.44,17.78,17.78,0,0,0-1.53-5.09,9.53,9.53,0,0,0-3.29-3.8A9.76,9.76,0,0,0,98.17,119l1-1.48a26.54,26.54,0,0,1,1.17,2.84,23.78,23.78,0,0,1,.84,3,11.92,11.92,0,0,1,.25,3.25,5.77,5.77,0,0,1-1.32,3.47l-1.21,1.37L98,129.72a8.09,8.09,0,0,0-.65-.91c-.28-.32-.55-.63-.86-.93a17.75,17.75,0,0,0-2-1.66,25.87,25.87,0,0,0-4.6-2.6,36.53,36.53,0,0,0-5.06-1.78l-2.64-.63-2.67-.51,1-2.72c1.94,1.26,3.8,2.56,5.64,3.93s3.62,2.81,5.33,4.37a32.9,32.9,0,0,1,4.78,5.18A9.26,9.26,0,0,1,97.91,135a5.35,5.35,0,0,1,.06,1.14,3.51,3.51,0,0,1-.32,1.18,3.36,3.36,0,0,1-.67,1,6.35,6.35,0,0,1-.86.71l-1,.79-.59-1.2a20.31,20.31,0,0,0-1.48-2.46A14.48,14.48,0,0,0,91.22,134,8.14,8.14,0,0,0,89,132.36a5.42,5.42,0,0,0-2.6-.5l.46-1a25.24,25.24,0,0,1,2.08,5.39,11.12,11.12,0,0,1,.36,2.87,3.36,3.36,0,0,1-1,2.62,3.23,3.23,0,0,0,.66-2.61,11.85,11.85,0,0,0-.66-2.67,28.62,28.62,0,0,0-2.5-4.94l-.51-.81,1-.15a6.59,6.59,0,0,1,3.38.33,9.85,9.85,0,0,1,2.84,1.72A15.41,15.41,0,0,1,94.66,135a19.46,19.46,0,0,1,1.83,2.68l-1.57-.41a1.87,1.87,0,0,0,.65-.8,1.64,1.64,0,0,0,.1-.45,3.81,3.81,0,0,0-.07-.54,7.3,7.3,0,0,0-1.35-2.49,30.87,30.87,0,0,0-4.55-4.6c-1.67-1.43-3.45-2.77-5.24-4.09s-3.65-2.58-5.5-3.76l-6.38-4.06L80,117.77l2.83.51,2.81.7a38.93,38.93,0,0,1,5.47,2,25.47,25.47,0,0,1,5.09,3,21.18,21.18,0,0,1,2.24,2c.35.37.68.76,1,1.17a8.84,8.84,0,0,1,.92,1.41l-2.15-.31a3.3,3.3,0,0,0,.73-1.93,9.48,9.48,0,0,0-.08-2.59,20.3,20.3,0,0,0-.61-2.71,25.11,25.11,0,0,0-.93-2.65l-.7-1.69,1.74.21a11.34,11.34,0,0,1,5.53,2.1,10,10,0,0,1,2.09,2.12,12.69,12.69,0,0,1,1.37,2.57,17.07,17.07,0,0,1,1.08,5.52A23.57,23.57,0,0,1,108,134.71Z" transform="translate(-38.62 -48.1)"/><path class="cls-1" d="M265.94,136.83a38.76,38.76,0,0,1,13.18,8.92,40.55,40.55,0,0,1,5,6.33,42.2,42.2,0,0,1,3.7,7.24l2.14,5.41-4.22-4.08a63.37,63.37,0,0,0-6.92-5.75,65,65,0,0,0-7.63-4.72l1.89-2.17c1.95,2.7,3.76,5.44,5.48,8.28s3.36,5.7,4.8,8.7a47.2,47.2,0,0,1,3.53,9.46,14.72,14.72,0,0,1,.3,5.33,10.51,10.51,0,0,1-.4,1.4,5.08,5.08,0,0,1-.76,1.31,5.3,5.3,0,0,1-2.43,1.75l-1.23.51-.12-1.32a22.08,22.08,0,0,0-3.15-9.55,23.23,23.23,0,0,0-7.22-7.35,21.29,21.29,0,0,1,4.49,2.82,21.55,21.55,0,0,1,3.7,3.87,22.13,22.13,0,0,1,2.68,4.71,23.23,23.23,0,0,1,1.48,5.26l-1.34-.81a3.43,3.43,0,0,0,2.06-2.95,12.28,12.28,0,0,0-.5-4.39,45.85,45.85,0,0,0-3.61-8.79q-2.22-4.29-4.8-8.42c-1.72-2.73-3.51-5.47-5.35-8.09l-3.61-5.15,5.5,3a60.7,60.7,0,0,1,7.91,5.07,63,63,0,0,1,7,6.22l-2.08,1.33a42.15,42.15,0,0,0-7.55-13.36,43.46,43.46,0,0,0-5.52-5.5A45.7,45.7,0,0,0,265.94,136.83Z" transform="translate(-38.62 -48.1)"/><path class="cls-1" d="M169.58,262.32h.54a1.9,1.9,0,0,0,1-.22,2.23,2.23,0,0,0,1.32-1.32,2,2,0,0,0,.21-1l-.09-.67a2.5,2.5,0,0,0-.64-1.1l-.51-.39a2.43,2.43,0,0,0-1.26-.34h-.54a2.69,2.69,0,0,0-1.77.73,2.75,2.75,0,0,0-.73,1.77l.09.66a2.53,2.53,0,0,0,.64,1.11l.51.39a2.53,2.53,0,0,0,1.26.34Z" transform="translate(-38.62 -48.1)"/><path class="cls-1" d="M167.07,258.84l-.41.26,1.71,1.71a.86.86,0,0,1,.07-.1l-.2.25.12-.12-.26.2a.87.87,0,0,1,.18-.11l-.3.13.08,0-.66-2.41-2.88,1.21a1,1,0,0,0-.42.22,1,1,0,0,0-.32.35,1.23,1.23,0,0,0,.45,1.71,1.16,1.16,0,0,0,1,.13l2.87-1.21a1,1,0,0,0,.43-.22,1.07,1.07,0,0,0,.32-.35,1.29,1.29,0,0,0,.12-1,1.26,1.26,0,0,0-1.53-.88,2,2,0,0,0-1.18.93,1.27,1.27,0,0,0,.19,1.51,1.29,1.29,0,0,0,1.52.2l.41-.26a1.31,1.31,0,0,0,.57-.75,1.24,1.24,0,0,0-.13-1,1.26,1.26,0,0,0-.74-.58,1.32,1.32,0,0,0-1,.13Z" transform="translate(-38.62 -48.1)"/><path class="cls-1" d="M168.05,260.86a8.87,8.87,0,0,0,1.64-1.54l-1.21.32a12.35,12.35,0,0,1,1.6.36l.75.25a1.07,1.07,0,0,0,.19.07c-.26,0-.23-.1-.11,0s0,0-.09-.08l-.12-.17c-.08-.22-.1-.27-.07-.13l0-.33v.06l0-.33c0,.16.05-.08.07-.11-.08.16.08-.08.08-.08s-.2.18-.23.21a2.11,2.11,0,0,0-.52.63,1.36,1.36,0,0,0-.12,1,1.3,1.3,0,0,0,.57.75,1.27,1.27,0,0,0,1.71-.45l.07-.12q-.19.22-.09.12l.05,0c.06-.07.14-.12.2-.18a2.06,2.06,0,0,0,.6-.94,1.7,1.7,0,0,0-.93-2,11.1,11.1,0,0,0-3-.85,1.28,1.28,0,0,0-1.21.32,8.32,8.32,0,0,1-.63.69l-.34.32-.15.12c-.24.2.17-.12,0,0a1.38,1.38,0,0,0-.58.74,1.32,1.32,0,0,0,.13,1,1.27,1.27,0,0,0,.75.57,1.2,1.2,0,0,0,1-.13Z" transform="translate(-38.62 -48.1)"/><path class="cls-1" d="M171,260.47c.2.13.39.27.58.41l-.25-.19a9.72,9.72,0,0,1,1.67,1.66l-.2-.25,0,0,1.42-1.84c-.79-.24-1.57-.51-2.33-.8a1.24,1.24,0,0,0-1.54.87,1.24,1.24,0,0,0,.13,1l.19.26a1.33,1.33,0,0,0,.55.32c.77.29,1.55.56,2.33.8l.33.05.34-.05a1.23,1.23,0,0,0,.65-.45,1.19,1.19,0,0,0,.24-.59,1.15,1.15,0,0,0-.15-.79,11.08,11.08,0,0,0-1.24-1.41,11.73,11.73,0,0,0-1.48-1.15,1.25,1.25,0,0,0-1.84,1.41,1.39,1.39,0,0,0,.58.75Z" transform="translate(-38.62 -48.1)"/><path class="cls-1" d="M175.34,261.05a7.67,7.67,0,0,0-3.12-2.8,1.37,1.37,0,0,0-1-.13,1.25,1.25,0,0,0-.74.57,1.27,1.27,0,0,0-.13,1,1.23,1.23,0,0,0,.58.74,7.08,7.08,0,0,1,1.17.72l-.26-.19a6.33,6.33,0,0,1,1.19,1.18l-.2-.26c.11.15.22.3.32.46a1.3,1.3,0,0,0,.75.57,1.24,1.24,0,0,0,1-.12,1.24,1.24,0,0,0,.45-1.71Z" transform="translate(-38.62 -48.1)"/><path class="cls-1" d="M172.89,258.7l-.22-.26a.87.87,0,0,0-.4-.26.89.89,0,0,0-.48-.11.87.87,0,0,0-.48.11.9.9,0,0,0-.41.26l-.19.25a1.24,1.24,0,0,0-.17.63l0,.33a1.27,1.27,0,0,0,.32.55l.22.27a1,1,0,0,0,.41.26.94.94,0,0,0,.48.1,1,1,0,0,0,.48-.1,1,1,0,0,0,.4-.26l.2-.26a1.24,1.24,0,0,0,.17-.63l0-.33a1.23,1.23,0,0,0-.32-.55Z" transform="translate(-38.62 -48.1)"/><path class="cls-1" d="M172.06,260.75a1.25,1.25,0,0,0,0-2.5,1.25,1.25,0,0,0,0,2.5Z" transform="translate(-38.62 -48.1)"/><path class="cls-1" d="M174.59,262.72l.44.14a.39.39,0,0,0,.24,0,.4.4,0,0,0,.24-.07l.12-.1a.63.63,0,0,0,.16-.27,1,1,0,0,0,0-.24.83.83,0,0,0,0-.22.14.14,0,0,0,0-.07,1.34,1.34,0,0,0-.07-.18l0,0a2,2,0,0,0-.13-.18l-.05-.05a1.18,1.18,0,0,0-.18-.13.78.78,0,0,0-.21-.09.42.42,0,0,0-.25,0,.39.39,0,0,0-.23.07.55.55,0,0,0-.18.16.53.53,0,0,0-.11.21l0,.17a.62.62,0,0,0,.09.32l.09.12a.61.61,0,0,0,.28.16h0l-.15-.06.08,0-.13-.09.07.06-.1-.12a.47.47,0,0,1,.06.09l-.06-.15a.36.36,0,0,1,0,.1l0-.17v.09l0-.16h0l.77-.43-.44-.14a.39.39,0,0,0-.24,0,.4.4,0,0,0-.24.07.44.44,0,0,0-.17.16.43.43,0,0,0-.11.21l0,.17a.62.62,0,0,0,.09.32l.1.12a.57.57,0,0,0,.27.16Z" transform="translate(-38.62 -48.1)"/><path class="cls-1" d="M175.34,263a.63.63,0,0,0,0-1.25.63.63,0,0,0,0,1.25Z" transform="translate(-38.62 -48.1)"/><path class="cls-1" d="M190.07,192.68a12.71,12.71,0,0,1-1.48-3.83,10.48,10.48,0,0,1-.05-4.29,8.14,8.14,0,0,1,2.12-4.07,9.6,9.6,0,0,1,3.92-2.35,27.81,27.81,0,0,1,8.16-1,23.3,23.3,0,0,1,8,1.25c-2.69.33-5.26.63-7.79,1.1a61.2,61.2,0,0,0-7.44,1.48,6.9,6.9,0,0,0-4.71,4.22A17.61,17.61,0,0,0,190.07,192.68Z" transform="translate(-38.62 -48.1)"/><path class="cls-1" d="M190,184a7,7,0,0,0,1.77,2.23,2.93,2.93,0,0,0,2,.62,6.62,6.62,0,0,0,1.11-.19c.38-.14.78-.25,1.17-.43s.8-.35,1.21-.56.8-.45,1.22-.65l-.18.14c.09-.08.34-.33.51-.52s.36-.44.53-.68a10,10,0,0,0,.89-1.57,13.41,13.41,0,0,0,.64-1.82c.1-.33.13-.66.23-1s.11-.69.2-1.06a6.49,6.49,0,0,1,.81,2.08,7.11,7.11,0,0,1,.15,2.31,7.9,7.9,0,0,1-.61,2.31,7.59,7.59,0,0,1-.58,1.09,6.15,6.15,0,0,1-.85,1.06l-.06,0-.13.08c-.45.3-.92.57-1.39.84a15.15,15.15,0,0,1-1.53.69,10.56,10.56,0,0,1-1.7.42,6.32,6.32,0,0,1-1.89,0,4.36,4.36,0,0,1-3.09-2.15A4.68,4.68,0,0,1,190,184Z" transform="translate(-38.62 -48.1)"/><path class="cls-1" d="M121.57,184.33a64.53,64.53,0,0,1,7.83-1.07,33.38,33.38,0,0,1,8,0,18.76,18.76,0,0,1,4.06,1,11,11,0,0,1,2,1,8.08,8.08,0,0,1,1.69,1.54,7.86,7.86,0,0,1,1.79,4,6.9,6.9,0,0,1-.69,4.06,8,8,0,0,0-2.79-6.41,6.81,6.81,0,0,0-1.35-.91,10.16,10.16,0,0,0-1.58-.6,23.63,23.63,0,0,0-3.56-.75c-2.43-.39-5-.43-7.6-.65A46.94,46.94,0,0,1,121.57,184.33Z" transform="translate(-38.62 -48.1)"/><path class="cls-1" d="M136.74,184.84a5,5,0,0,1,1.29,2.84,5.51,5.51,0,0,1-.68,3.33,6.31,6.31,0,0,1-2.55,2.42,7.23,7.23,0,0,1-1.64.63,6.5,6.5,0,0,1-1.81.17,7.07,7.07,0,0,1-3.41-1,5.72,5.72,0,0,1-2.31-2.8,5.24,5.24,0,0,1,1.58-6,5.72,5.72,0,0,0,.55,5,5.26,5.26,0,0,0,4.74,1.75,5.33,5.33,0,0,0,1.08-.32,5.06,5.06,0,0,0,1.84-1.2A5.82,5.82,0,0,0,136.74,184.84Z" transform="translate(-38.62 -48.1)"/><path class="cls-1" d="M80.93,170.44A51.12,51.12,0,0,0,65,190.5l-.92,2.41c-.14.4-.32.79-.44,1.2l-.35,1.24a45.19,45.19,0,0,0-1.73,10.06L60,205a39.64,39.64,0,0,1,2.19-3.46,28.08,28.08,0,0,1,2.61-3.18,12.79,12.79,0,0,1,3.41-2.62,5.69,5.69,0,0,1,2.29-.64,4.6,4.6,0,0,1,2.46.54l1.06.58-.76,1A89.91,89.91,0,0,0,68,204.87a77.72,77.72,0,0,0-4.47,8.21,50.23,50.23,0,0,0-3.27,8.64,27.16,27.16,0,0,0-1,8.91l-2.68-.36c.78-2.08,1.64-4.05,2.58-6a51.53,51.53,0,0,1,3.19-5.76,20.77,20.77,0,0,1,4.5-5.22,6.72,6.72,0,0,1,3.76-1.49,5.53,5.53,0,0,1,1.14.09,8.41,8.41,0,0,1,1.07.36,10.72,10.72,0,0,1,.93.54l.78.65.88.72-.64,1.1a82,82,0,0,0-4,8,71.84,71.84,0,0,0-3.1,8.4,38.2,38.2,0,0,0-1.56,8.65,16.65,16.65,0,0,0,1.44,8.19l-2.72.39c.32-1.63.68-3.19,1.07-4.78s.83-3.15,1.33-4.72A36.89,36.89,0,0,1,69,234.7a12.52,12.52,0,0,1,1.41-2.32,5.36,5.36,0,0,1,1.22-1.12,2.88,2.88,0,0,1,2.22-.37l1.56.42-.67,1.45a29,29,0,0,0-2.41,7.69,31.57,31.57,0,0,0-.31,8.07A38.19,38.19,0,0,0,77,264l-1.92.52c0-1.33.13-2.61.27-3.91a34.34,34.34,0,0,1,.65-3.87,16.45,16.45,0,0,1,1.35-3.82,6.72,6.72,0,0,1,1.31-1.76,3.84,3.84,0,0,1,2.18-1l1-.09-.1,1c-.24,2.42-.38,4.9-.44,7.35s-.09,4.92,0,7.38a45.42,45.42,0,0,0,.91,7.28,18.59,18.59,0,0,0,1.1,3.46,7.8,7.8,0,0,0,2,2.88l-.46.34a13.11,13.11,0,0,1-.55-3,14.63,14.63,0,0,1,0-3,14.21,14.21,0,0,1,.64-2.89,14.94,14.94,0,0,1,1.18-2.69,15.1,15.1,0,0,0-1,2.74,14.68,14.68,0,0,0-.37,5.75,12.87,12.87,0,0,0,.64,2.79l.33.94-.79-.6a8.32,8.32,0,0,1-2.35-3,20.09,20.09,0,0,1-1.3-3.57,46.58,46.58,0,0,1-1.23-7.41,92.37,92.37,0,0,1-.07-15l.92.91a3.13,3.13,0,0,0-2.1,1.94,14.86,14.86,0,0,0-1.09,3.4,31.78,31.78,0,0,0-.52,3.67c-.11,1.23-.18,2.5-.17,3.71v3.74L75.22,265a40.82,40.82,0,0,1-5.67-16.27,32.42,32.42,0,0,1,.21-8.74,31.59,31.59,0,0,1,2.51-8.39l.88,1.88s.07,0-.07.07a2.51,2.51,0,0,0-.53.52,10.27,10.27,0,0,0-1,1.81,31.59,31.59,0,0,0-1.61,4.32,92.93,92.93,0,0,0-2.26,9.17l-.81,4.18-1.91-3.79a19.49,19.49,0,0,1-1.79-9.63,40.53,40.53,0,0,1,1.64-9.35A68.63,68.63,0,0,1,68,222a83.56,83.56,0,0,1,4.25-8.32l.24,1.82a2.45,2.45,0,0,0-1.8-.83,3.85,3.85,0,0,0-2.08.9,17.84,17.84,0,0,0-3.83,4.45,55.48,55.48,0,0,0-3.06,5.44c-.92,1.87-1.79,3.82-2.54,5.74L56.9,237l-.41-6.15A29.71,29.71,0,0,1,57.67,221a52.4,52.4,0,0,1,3.55-9,79.81,79.81,0,0,1,4.8-8.34,92.36,92.36,0,0,1,5.64-7.8l.3,1.56a3,3,0,0,0-2.9.07,10.72,10.72,0,0,0-2.92,2.16,26,26,0,0,0-2.51,2.91,33.51,33.51,0,0,0-2.16,3.22l-2,3.36.42-3.81A42.6,42.6,0,0,1,62,194.93l.41-1.25c.15-.42.34-.82.5-1.23l1-2.43c.83-1.55,1.59-3.14,2.57-4.6a50.16,50.16,0,0,1,6.43-8.28A47.33,47.33,0,0,1,80.93,170.44Z" transform="translate(-38.62 -48.1)"/><path class="cls-1" d="M252,172.12a37.44,37.44,0,0,1,7.56,5.59,38.06,38.06,0,0,1,6,7.35,39.12,39.12,0,0,1,4,8.64,40.42,40.42,0,0,1,1.76,9.4l.37,5.4-2.1-5a19.23,19.23,0,0,0-5.21-7.25,16,16,0,0,0-8-3.65l1-2A43.9,43.9,0,0,1,268,208.28a45,45,0,0,1,2,10.22,48.25,48.25,0,0,1-.41,10.4l-2.9-.3a22.67,22.67,0,0,0-.56-6.32,16.75,16.75,0,0,0-2.48-5.68,14.32,14.32,0,0,0-2-2.22,9.72,9.72,0,0,0-8.34-2.15l.71-2.57a30.28,30.28,0,0,1,10,16.91,29.59,29.59,0,0,1,.33,9.93,30.84,30.84,0,0,1-2.85,9.48l-1.66,3.4-.69-3.71a88.36,88.36,0,0,0-2.18-9.23,34.37,34.37,0,0,0-1.6-4.37,9.86,9.86,0,0,0-1.08-1.87,2.9,2.9,0,0,0-.6-.61.63.63,0,0,0-.35-.12l.63-1.42A23.49,23.49,0,0,1,256,242.69a29.85,29.85,0,0,1-6.32,13.21l-1.14,1.4.44-1.74A19.58,19.58,0,0,0,247.44,242a19.23,19.23,0,0,1,2.46,6.63,19.71,19.71,0,0,1-.11,7.14l-.71-.34a28.76,28.76,0,0,0,5.48-13,22.56,22.56,0,0,0-.11-7,22.27,22.27,0,0,0-2.29-6.53l-.58-1.09,1.21-.33a2.51,2.51,0,0,1,2,.32,4.83,4.83,0,0,1,1.14,1,12.22,12.22,0,0,1,1.38,2.24,35.19,35.19,0,0,1,1.83,4.62,91.19,91.19,0,0,1,2.48,9.45l-2.35-.31a28.09,28.09,0,0,0,2-17.75,26,26,0,0,0-1.32-4.32,26.78,26.78,0,0,0-2-4.05,27.85,27.85,0,0,0-5.82-6.88l-2.4-2,3.11-.53a13.59,13.59,0,0,1,7.49.75,13.76,13.76,0,0,1,3.26,2,15.94,15.94,0,0,1,2.54,2.79,19.6,19.6,0,0,1,2.91,6.71,25.51,25.51,0,0,1,.61,7.17l-2.91-.3a45.64,45.64,0,0,0,.44-9.77,42.36,42.36,0,0,0-11.43-26.46l-2.39-2.57,3.43.6a18.25,18.25,0,0,1,8.95,4.37,20.68,20.68,0,0,1,5.5,8.18l-1.74.38a38.72,38.72,0,0,0-1.37-9.07,37.2,37.2,0,0,0-8.93-16A39.59,39.59,0,0,0,252,172.12Z" transform="translate(-38.62 -48.1)"/><line class="cls-3" x1="283.88" y1="22.9" x2="283.88" y2="290.9"/><text class="cls-4" transform="translate(312.38 113.28)"><tspan class="cls-5">E</tspan><tspan class="cls-6" x="31.58" y="0">v</tspan><tspan x="56.88" y="0">e</tspan><tspan class="cls-7" x="85.87" y="0">ry</tspan><tspan x="132.57" y="0">thi</tspan><tspan class="cls-8" x="197.47" y="0">n</tspan><tspan x="230.06" y="0">g </tspan><tspan class="cls-9" x="275.56" y="0">y</tspan><tspan x="300.86" y="0">ou </tspan><tspan class="cls-8" x="0" y="57.6">n</tspan><tspan x="32.59" y="57.6">eed </tspan><tspan class="cls-10" x="135.69" y="57.6">t</tspan><tspan x="154.27" y="57.6">o </tspan><tspan class="cls-11" x="196.94" y="57.6">k</tspan><tspan class="cls-8" x="225.4" y="57.6">n</tspan><tspan class="cls-6" x="258" y="57.6">o</tspan><tspan class="cls-12" x="287.37" y="57.6">w </tspan><tspan x="0" y="115.2">about animals</tspan></text></svg>
